<?xml version="1.0" encoding="UTF-8"?>
<svg width="200px" height="200px" viewBox="0 0 200 200" version="1.1" xmlns="http://www.w3.org/2000/svg" xmlns:xlink="http://www.w3.org/1999/xlink">
    <!-- Generator: Sketch 51.2 (57519) - http://www.bohemiancoding.com/sketch -->
    <title>Intro/3</title>
    <desc>Created with Sketch.</desc>
    <defs></defs>
    <g id="Intro/3" stroke="none" stroke-width="1" fill="none" fill-rule="evenodd">
        <g id="App---Intro3">
            <g id="Layer_5" transform="translate(3.052730, 9.661174)" fill="#FEC372" fill-rule="nonzero">
                <ellipse id="Oval" cx="97.3408249" cy="89.7195977" rx="97.3078224" ry="89.7195977"></ellipse>
            </g>
            <g id="Layer_2" transform="translate(22.029158, 42.676526)">
                <path d="M4.74410699,27.9185114 C4.8266132,26.0927777 3.67152628,23.5063216 2.68145178,22.1370213 C1.69137728,20.767721 -0.701302773,17.6487593 0.28877173,9.50902977 C1.27884623,1.36930029 3.17648903,-1.44537253 6.55924358,0.684650144 C9.94199814,2.81467281 12.0871596,6.16185129 12.3346782,10.0415354 C12.5821968,13.9212196 14.232321,13.8451474 14.3973334,10.4979689 C14.5623458,7.15079039 16.21247,6.61828472 16.9550259,9.20474082 C17.6975817,11.7911969 18.0276066,15.2905199 17.0375321,17.876976 C16.0474576,20.4634321 14.0673086,26.9295723 14.3973334,28.755306 C14.7273582,30.5810398 4.74410699,27.9185114 4.74410699,27.9185114 Z" id="Shape" fill="#FFE5D4" fill-rule="nonzero"></path>
                <path d="M143.92383,33.0533875 C143.92383,33.0533875 144.707639,29.6909946 144.295108,28.4205882 C143.882577,27.1501818 141.514649,23.7345383 141.951932,19.1854185 C142.389215,14.6362986 142.422217,13.1833189 142.248954,11.9357342 C142.083942,10.6881495 143.692813,9.18952637 144.757143,11.2206551 C145.813222,13.2593911 145.062416,19.1093462 145.755468,17.0401814 C146.44852,14.9710165 145.920481,6.16185129 149.09697,5.50763005 C153.717317,4.54911984 156.555531,8.80155796 157.685866,14.0657568 C158.816201,19.3299557 153.989588,24.9897302 153.676064,29.1737033 C153.370791,33.3576764 153.313037,35.6474508 153.313037,35.6474508 C153.313037,35.6474508 144.097093,32.9925297 143.92383,33.0533875 Z" id="Shape" fill="#FFE5D4" fill-rule="nonzero"></path>
                <path d="M93.6032936,82.2340895 C93.6032936,82.2340895 100.616321,79.7997779 108.289399,78.4304776 C115.962476,77.0611773 133.866323,64.0528246 133.866323,64.0528246 C133.866323,64.0528246 142.446969,31.5699789 143.024513,30.7331842 C143.602056,29.8963896 154.740394,31.2656899 154.740394,31.2656899 C154.740394,31.2656899 150.615084,70.5189648 149.129972,72.192554 C147.64486,73.8661433 108.619424,101.708582 106.556768,106.0447 C104.494113,110.380818 103.586545,122.324159 103.586545,122.324159 L93.6032936,82.2340895 Z" id="Shape" fill="#49276B" fill-rule="nonzero"></path>
                <path d="M68.026369,82.2112678 C68.026369,82.2112678 52.7627204,80.5605003 50.1225217,80.5605003 C47.482323,80.5605003 53.5052763,144.537253 59.4457233,151.079465 C65.3861703,157.621678 104.246595,158.306328 107.711855,152.372693 C111.177116,146.439059 112.084684,80.5605003 112.084684,80.5605003 L89.395477,82.386234 L68.026369,82.2112678 Z" id="Shape" fill="#49276B" fill-rule="nonzero"></path>
                <path d="M81.3428711,88.4111552 L85.1051542,156.024161" id="Shape" stroke="#3B235E" stroke-width="6"></path>
                <path d="M68.7524236,73.0825992 L69.7424981,83.1393491 C69.7424981,83.1393491 83.2652657,95.097905 89.3872264,82.3938412 L88.133132,65.9242016 L68.7524236,73.0825992 Z" id="Shape" fill="#F9D8C5" fill-rule="nonzero"></path>
                <polygon id="Shape" fill="#B2B2B2" fill-rule="nonzero" points="84.5441119 144.605718 79.0656997 137.44732 80.8890869 94.9381533 84.3130946 94.9381533 88.4219037 137.660322"></polygon>
                <path d="M104.58487,37.556864 C107.035304,55.943524 97.0438025,75.4028025 77.1020519,77.662148 C57.1603013,79.9214935 43.2250027,63.3453527 39.800995,45.475984 C36.3109824,27.2338613 48.0846184,12.8029577 68.026369,10.5512194 C87.9763702,8.29187396 102.142686,19.170204 104.58487,37.556864 Z" id="Face_7_" fill="#FFE5D4" fill-rule="nonzero"></path>
                <ellipse id="Eye_R_7_" fill="#050303" fill-rule="nonzero" transform="translate(88.542636, 48.365403) rotate(-7.002066) translate(-88.542636, -48.365403) " cx="88.5426359" cy="48.3654031" rx="3.33311059" ry="4.01644519"></ellipse>
                <ellipse id="Eye_L_7_" fill="#050303" fill-rule="nonzero" transform="translate(63.602981, 49.240669) rotate(-7.002066) translate(-63.602981, -49.240669) " cx="63.6029809" cy="49.240669" rx="3.33311059" ry="4.01644519"></ellipse>
                <path d="M95.5174377,26.0471344 C95.5174377,26.0471344 102.819237,37.4655773 102.579969,42.7373834 C102.340701,48.0091895 104.873642,48.3286929 104.873642,48.3286929 C104.873642,48.3286929 107.464337,30.9842226 100.410056,21.924019 C93.355775,12.8714227 95.5174377,26.0471344 95.5174377,26.0471344 Z" id="Shape" fill="#7F431B" fill-rule="nonzero"></path>
                <path d="M37.0040346,22.0609491 C38.3241339,19.033274 41.0468388,15.5567727 43.109494,13.7690751 C47.0120377,10.3914677 58.3896438,5.38591446 63.8928079,4.44261871 C68.3646444,3.6742891 76.1284787,5.1424833 78.2488882,5.43155781 C80.3197941,5.71302509 90.7073257,8.54291235 94.4943607,8.0788717 C98.6031699,7.57679492 102.563468,6.37485356 106.210242,4.54911984 C106.738282,4.28286701 107.150813,3.88729137 107.6376,4.06225752 C107.967625,4.22961644 107.868617,5.43916503 107.860366,5.80431177 C107.753108,13.3887139 104.32085,20.9122583 98.1741376,26.0167055 C92.1924375,30.9766154 83.7850548,34.9704079 75.8232057,34.0042905 C70.9883419,33.4185342 66.0214681,32.7186696 61.4918773,31.1059382 C60.6750658,30.9157576 56.6982665,29.0824167 50.4525466,32.8251708 C44.2068266,38.2643358 45.4279185,49.8577449 45.6011815,51.9953748 C45.7909458,54.277542 46.351988,56.7422825 46.5170004,57.1911087 C46.5582535,57.2976098 46.2282287,61.5956913 44.4543452,60.5611088 C44.239829,60.431786 38.0023597,45.0651939 36.9957839,38.8044487 C35.5024216,29.4399562 35.8076945,24.7995497 37.0040346,22.0609491 Z" id="Hair_1_" fill="#965623" fill-rule="nonzero"></path>
                <path d="M78.8346823,93.6753541 L79.973268,96.2009524 L85.2206629,96.2009524 L86.8212833,90.0999589 C86.8212833,90.0999589 82.5557123,87.8406134 79.5524863,88.4415841 C76.5492603,89.0425548 78.8346823,93.6753541 78.8346823,93.6753541 Z" id="Shape" fill="#C1C1C1" fill-rule="nonzero"></path>
                <polygon id="Shape" fill="#3B235E" fill-rule="nonzero" points="69.3464683 79.5715612 81.235613 88.3122613 78.6036649 97.4637516 62.498453 82.3101617"></polygon>
                <polygon id="Shape" fill="#3B235E" fill-rule="nonzero" points="89.4779832 78.2783331 81.3428711 88.198153 87.0523007 95.9879502 96.8210358 81.0930059"></polygon>
                <path d="M63.6122868,81.945015 C63.6122868,81.945015 51.0218394,80.111674 47.4740724,79.8073851 C43.9263055,79.5030961 22.7222098,66.7990324 22.7222098,66.7990324 L16.864269,25.3396625 L2.50818874,26.9371795 C2.50818874,26.9371795 6.63349917,77.9055791 8.36612955,80.5681075 C10.0987599,83.2306358 49.5367276,104.759079 50.6918146,107.421608 C51.8469015,110.084136 53.0019884,115.561337 53.0019884,115.561337 L63.6122868,81.945015 Z" id="Shape" fill="#49276B" fill-rule="nonzero"></path>
            </g>
            <g id="Layer_3" fill-rule="nonzero">
                <path d="M57.8038497,20.7296849 C57.4573237,20.1743576 56.7642715,19.6494591 56.07947,19.5049219 C54.6521126,19.2082401 52.8287254,19.9004975 52.5234524,21.3610845 C52.119172,23.3313555 51.7066409,25.3016264 51.3023605,27.2718974 C51.1538493,27.9869764 51.1868518,28.6792338 51.5911322,29.3258478 C51.9376583,29.8811752 52.6307105,30.4060736 53.315512,30.5506109 C54.7428694,30.8472926 56.5662566,30.1550352 56.8715296,28.6944482 C57.27581,26.7241773 57.688341,24.7539063 58.0926215,22.7836353 C58.2411326,22.0685563 58.2163808,21.3762989 57.8038497,20.7296849 Z" id="Shape" fill="#7DA9EF"></path>
                <path d="M153.007764,33.3957126 C152.768496,32.7034552 152.322962,32.2242001 151.679414,31.8058028 C151.283384,31.5471572 150.903856,31.2885116 150.516076,31.0146515 C149.047466,29.9496402 147.661362,28.7933422 146.357763,27.5609719 C145.301684,26.5644256 143.321535,26.511175 142.273706,27.5609719 C141.201125,28.6335905 141.143371,30.2615364 142.273706,31.3265477 C144.262106,33.1979247 146.44852,34.8791212 148.766945,36.400566 C149.344488,36.7809272 150.334563,36.8341777 150.994612,36.6668188 C151.662913,36.4994599 152.388967,36.0202048 152.718992,35.4420558 C153.073769,34.8258706 153.255282,34.0803627 153.007764,33.3957126 Z" id="Shape" fill="#7DA9EF"></path>
                <path d="M150.582081,65.2167298 C149.187726,64.5396869 147.455096,64.8896192 146.630034,66.17524 C145.903979,67.3011091 145.11192,68.3889421 144.253855,69.438739 C143.899078,69.8495291 143.536051,70.2603192 143.164773,70.6558948 C142.661485,71.1960077 142.314959,71.8045856 142.314959,72.5348791 C142.314959,73.1891004 142.628483,73.9650372 143.164773,74.4138634 C144.245604,75.3343375 146.192751,75.5397325 147.24883,74.4138634 C148.874203,72.6794164 150.351064,70.8232538 151.613409,68.8529828 C152.388967,67.6586487 151.959935,65.8861655 150.582081,65.2167298 Z" id="Shape" fill="#7DA9EF"></path>
                <path d="M98.9661972,44.7228688 C98.1081326,42.4559161 97.448083,40.1357129 96.9860482,37.7698663 C96.8622889,37.1460739 96.2269911,36.4842454 95.6576982,36.1799565 C95.0389017,35.8452386 94.1230828,35.7007014 93.4300306,35.9137037 C92.7287278,36.1190987 92.0604275,36.5222816 91.7056509,37.1384667 C91.3261223,37.8079024 91.2683679,38.4469092 91.4168791,39.1924171 C91.8706633,41.5582637 92.5307129,43.878467 93.3970281,46.1454197 C93.6445468,46.8072482 94.0570778,47.3777899 94.7253781,47.7353295 C95.3441746,48.0700473 96.2599936,48.2145846 96.9530457,48.0015823 C98.3556513,47.583185 99.5024876,46.1302052 98.9661972,44.7228688 Z" id="Shape" fill="#7DA9EF"></path>
                <path d="M10.8908195,57.5638626 C10.7423084,57.3812893 10.5937972,57.2063231 10.4370354,57.0237498 C10.0740081,56.6966391 9.65322641,56.4684224 9.16643977,56.3390996 C7.34305256,55.639235 5.51966535,54.9393704 3.69627814,54.2318986 C3.05272972,53.9884674 2.03790335,54.1938625 1.46861051,54.4981514 C0.86631519,54.8176548 0.297022351,55.4566616 0.140260555,56.0880612 C-0.0247518626,56.7727114 0.00825062086,57.5334337 0.429032285,58.1420117 C0.57754346,58.324585 0.726054636,58.4995512 0.882816432,58.6821245 C1.24584375,59.0092352 1.66662541,59.2374519 2.15341204,59.3667747 C3.97679925,60.0666393 5.80018646,60.7665039 7.62357367,61.4739757 C8.2671221,61.7174068 9.28194847,61.5120118 9.85124131,61.2077229 C10.4535366,60.8882195 11.0228295,60.2492127 11.1795913,59.6178131 C11.3446037,58.9331629 11.3116012,58.1648333 10.8908195,57.5638626 Z" id="Shape" fill="#7DA9EF"></path>
                <path d="M18.9846786,113.27917 C18.8031649,112.662985 18.2833758,111.993549 17.6563286,111.68926 C16.9880283,111.362149 16.1712169,111.202398 15.428661,111.423007 C14.7521101,111.620795 14.0095542,112.023978 13.7042812,112.64777 C13.0029785,114.055107 12.1531645,115.378764 11.1465888,116.618741 C10.7258071,117.136032 10.6763034,118.079328 10.8578171,118.672692 C11.0393307,119.288877 11.5591198,119.958312 12.186167,120.262601 C12.8544673,120.589712 13.6712788,120.749464 14.4138346,120.528854 C15.1728918,120.300637 15.667929,119.889847 16.1382144,119.304091 C17.1447901,118.064114 17.9946041,116.740457 18.6959069,115.33312 C19.0259317,114.663685 19.1991947,114.017071 18.9846786,113.27917 Z" id="Shape" fill="#7DA9EF"></path>
                <path d="M194.335124,119.106303 C193.246042,117.082782 192.15696,115.066867 191.067878,113.043346 C190.391327,111.795761 188.369925,111.346935 187.11583,112.084836 C185.729726,112.906416 185.358448,114.389825 186.076252,115.728696 C187.165334,117.752218 188.254416,119.768132 189.343498,121.791653 C190.020049,123.039238 192.041451,123.488064 193.295545,122.750164 C194.68165,121.928583 195.052928,120.445175 194.335124,119.106303 Z" id="Shape" fill="#7DA9EF"></path>
                <path d="M92.0521769,1.33887139 C91.1611099,0.0684650144 89.5439882,-0.289074505 88.1001295,0.380361191 C87.3245712,0.737900711 86.5407622,1.08022578 85.7487026,1.39972918 C84.7503775,1.78009037 83.7438017,2.12241545 82.7207247,2.43431162 C82.0111713,2.64731389 81.3841242,3.05049675 80.996345,3.65907466 C80.6333177,4.22961644 80.4765559,5.07401829 80.7075732,5.71302509 C81.169608,7.02907481 82.7207247,8.04083558 84.2635908,7.5691877 C86.5820153,6.86932311 88.8426854,5.99449237 91.0208493,4.9827316 C92.3657005,4.35133202 92.8607378,2.49516941 92.0521769,1.33887139 Z" id="Shape" fill="#7DA9EF"></path>
                <path d="M60.1635273,111.149147 C59.8170012,110.59382 59.1239491,110.068921 58.4391475,109.924384 C57.6965917,109.77224 56.8715296,109.802669 56.2114799,110.190637 C55.6256858,110.540569 54.990388,111.118718 54.88313,111.780547 C54.4953508,114.283323 53.967311,116.763278 53.2825095,119.212804 C52.9112316,120.559283 53.7610455,122.164407 55.295661,122.491518 C56.797274,122.803414 58.4473982,122.073121 58.8516786,120.635355 C59.5282295,118.185829 60.0645199,115.705874 60.452299,113.203098 C60.5678077,112.465197 60.5925596,111.82619 60.1635273,111.149147 Z" id="Shape" fill="#7DA9EF"></path>
                <path d="M34.6856101,159.455018 C34.4628433,158.808404 34.0255604,158.192219 33.3572601,157.865109 C32.7219623,157.553213 31.8308953,157.332603 31.1295925,157.598856 C28.464642,158.618224 25.7996914,159.629985 23.1264903,160.649353 C22.4004356,160.923213 21.8146416,161.219894 21.4021105,161.874116 C21.0390832,162.444657 20.8823214,163.289059 21.1133388,163.928066 C21.3361055,164.57468 21.7733884,165.190865 22.4416887,165.517976 C23.0769865,165.829872 23.9680536,166.050482 24.6693564,165.784229 C27.3343069,164.764861 29.9992574,163.7531 32.6724586,162.733732 C33.3985132,162.459872 33.9843073,162.16319 34.3968384,161.508969 C34.7516151,160.938427 34.9083769,160.094025 34.6856101,159.455018 Z" id="Shape" fill="#7DA9EF"></path>
                <path d="M156.192503,131.102895 C154.583632,128.835943 152.974761,126.56899 151.36589,124.302037 C150.953359,123.723888 150.375816,123.267455 149.641511,123.077274 C148.948458,122.902308 148.032639,122.97838 147.413843,123.343527 C146.151498,124.089035 145.491448,125.739803 146.374265,126.987387 C147.983136,129.25434 149.592007,131.521293 151.200878,133.788245 C151.613409,134.366394 152.190952,134.822828 152.925258,135.013008 C153.61831,135.187975 154.534129,135.111902 155.152925,134.746756 C156.41527,134.001248 157.07532,132.35048 156.192503,131.102895 Z" id="Shape" fill="#7DA9EF"></path>
                <path d="M89.1149559,20.7905427 C89.0489509,19.3451702 87.8443603,18.1280144 86.2272386,18.1280144 C84.717375,18.1280144 83.2735163,19.3527774 83.3395213,20.7905427 C83.4055263,22.2359152 84.6101169,23.453071 86.2272386,23.453071 C87.7371022,23.453071 89.1892115,22.228308 89.1149559,20.7905427 Z" id="Shape" fill="#775DD8"></path>
                <path d="M121.779164,6.54981971 C121.713159,5.10444718 120.508568,3.88729137 118.891447,3.88729137 C117.381583,3.88729137 115.937724,5.11205441 116.003729,6.54981971 C116.069734,7.99519223 117.274325,9.21234805 118.891447,9.21234805 C120.40131,9.21234805 121.845169,7.98758501 121.779164,6.54981971 Z" id="Shape" fill="#775DD8"></path>
                <path d="M149.393992,47.8874739 C149.327987,46.4421014 148.123396,45.2249456 146.506275,45.2249456 C144.996411,45.2249456 143.552552,46.4497086 143.618557,47.8874739 C143.684562,49.3328465 144.889153,50.5500023 146.506275,50.5500023 C148.016138,50.5500023 149.468247,49.3252392 149.393992,47.8874739 Z" id="Shape" fill="#775DD8"></path>
                <path d="M193.633821,42.14402 C193.567816,40.6986474 192.363225,39.4814916 190.746104,39.4814916 C189.23624,39.4814916 187.792381,40.7062547 187.858386,42.14402 C187.924391,43.5893925 189.128982,44.8065483 190.746104,44.8065483 C192.264218,44.8065483 193.708077,43.5817853 193.633821,42.14402 Z" id="Shape" fill="#775DD8"></path>
                <path d="M185.91949,84.5771144 C185.853485,83.1317419 184.648895,81.9145861 183.031773,81.9145861 C181.52191,81.9145861 180.078051,83.1393491 180.144056,84.5771144 C180.210061,86.022487 181.414651,87.2396428 183.031773,87.2396428 C184.541637,87.2396428 185.985495,86.0148797 185.91949,84.5771144 Z" id="Shape" fill="#775DD8"></path>
                <path d="M181.761178,145.358833 C181.695173,143.91346 180.490582,142.696304 178.87346,142.696304 C177.363597,142.696304 175.919738,143.921067 175.985743,145.358833 C176.051748,146.804205 177.256339,148.021361 178.87346,148.021361 C180.383324,148.021361 181.827182,146.796598 181.761178,145.358833 Z" id="Shape" fill="#775DD8"></path>
                <path d="M139.889277,102.370411 C139.823272,100.925038 138.618681,99.7078826 137.001559,99.7078826 C135.491696,99.7078826 134.047837,100.932646 134.113842,102.370411 C134.179847,103.815783 135.384438,105.032939 137.001559,105.032939 C138.511423,105.032939 139.963532,103.808176 139.889277,102.370411 Z" id="Shape" fill="#775DD8"></path>
                <path d="M61.2031055,67.057678 C61.1371006,65.6123054 59.9325099,64.3951496 58.3153882,64.3951496 C56.8055246,64.3951496 55.361666,65.6199127 55.4276709,67.057678 C55.4936759,68.5030505 56.6982665,69.7202063 58.3153882,69.7202063 C59.8252519,69.7202063 61.2773611,68.4954433 61.2031055,67.057678 Z" id="Shape" fill="#775DD8"></path>
                <path d="M12.8049636,83.2078141 C12.7389586,81.7624416 11.534368,80.5452858 9.91724627,80.5452858 C8.40738266,80.5452858 6.96352401,81.7700488 7.02952897,83.2078141 C7.09553394,84.6531867 8.30012458,85.8703425 9.91724627,85.8703425 C11.4271099,85.8703425 12.8709685,84.6455794 12.8049636,83.2078141 Z" id="Shape" fill="#775DD8"></path>
                <path d="M26.4597411,25.9862766 C26.3937361,24.540904 25.1891455,23.3237482 23.5720238,23.3237482 C22.0621602,23.3237482 20.6183015,24.5485113 20.6843065,25.9862766 C20.7503115,27.4316491 21.9549021,28.6488049 23.5720238,28.6488049 C25.090138,28.6488049 26.5339967,27.4240419 26.4597411,25.9862766 Z" id="Shape" fill="#775DD8"></path>
                <path d="M49.3304621,141.798652 C49.2644572,140.353279 48.0598665,139.136124 46.4427448,139.136124 C44.9328812,139.136124 43.4890225,140.360887 43.5550275,141.798652 C43.6210325,143.244025 44.8256231,144.46118 46.4427448,144.46118 C47.9526084,144.46118 49.3964671,143.236417 49.3304621,141.798652 Z" id="Shape" fill="#775DD8"></path>
                <path d="M75.2786647,13.867969 C74.2555877,12.0118064 73.2325107,10.163251 72.2011831,8.30708841 C71.5163816,7.06711093 69.5114807,6.60307028 68.2491357,7.34857821 C66.8712821,8.17015838 66.4752523,9.66117425 67.2095575,10.9924384 C68.2326345,12.848601 69.2557115,14.6971564 70.2870391,16.553319 C70.9718406,17.7932965 72.9767415,18.2573372 74.2390865,17.5118292 C75.6169402,16.6902491 76.01297,15.1992332 75.2786647,13.867969 Z" id="Shape" fill="#ED6464"></path>
                <path d="M121.614151,24.4191885 C121.432638,23.8030033 120.912849,23.1335676 120.285802,22.8292787 C119.617501,22.5021681 118.80069,22.3424164 118.058134,22.5630258 C117.299077,22.7912426 116.80404,23.2020327 116.333754,23.7877889 C115.038407,25.4005203 113.734809,27.0132518 112.439461,28.6259832 C112.018679,29.1432745 111.969176,30.0865702 112.150689,30.6799337 C112.332203,31.2961188 112.851992,31.9655545 113.479039,32.2698434 C114.14734,32.5969541 114.964151,32.7567058 115.706707,32.5360963 C116.465764,32.3078796 116.960801,31.8970895 117.431087,31.3113332 C118.726434,29.6986018 120.030032,28.0858703 121.32538,26.4731389 C121.737911,25.9482404 121.795665,25.0125519 121.614151,24.4191885 Z" id="Shape" fill="#ED6464"></path>
                <path d="M151.984687,9.12106136 C151.638161,7.76697552 149.880779,6.83128699 148.428669,7.26489875 C146.894054,7.72133218 146.035989,9.09063246 146.415518,10.5436122 C146.555778,11.0913323 146.671287,11.6390524 146.762044,12.1943798 C146.885803,13.2289622 146.927056,14.2711519 146.877553,15.3133415 C146.811548,16.7054635 148.255406,18.0367277 149.76527,17.9758699 C151.382392,17.9074049 152.586982,16.8043574 152.652987,15.3133415 C152.760245,13.2365694 152.504476,11.1369757 151.984687,9.12106136 Z" id="Shape" fill="#ED6464"></path>
                <path d="M196.703052,94.519756 C196.15026,94.0557153 195.432456,93.705783 194.665149,93.7362119 C193.864838,93.7666408 193.237791,94.0405009 192.627245,94.519756 C192.387977,94.7099366 192.140459,94.8925099 191.89294,95.0674761 C190.152059,96.2618102 188.287419,97.2811782 186.30727,98.1103656 C185.688473,98.3690112 185.152183,99.1221264 184.97892,99.7002754 C184.789155,100.339282 184.871662,101.183684 185.267691,101.754226 C185.663721,102.324768 186.257766,102.826844 186.992071,102.978989 C187.792381,103.146348 188.468932,103.024632 189.219739,102.712736 C191.942444,101.57926 194.41763,100.057815 196.703052,98.2853318 C197.239342,97.8669344 197.552866,97.0225326 197.552866,96.4063475 C197.552866,95.7521262 197.231092,94.9761894 196.703052,94.519756 Z" id="Shape" fill="#ED6464"></path>
                <path d="M169.319241,138.968765 C167.850631,138.664476 166.118,139.371948 165.763224,140.824927 C165.325941,142.643054 164.880407,144.453573 164.443124,146.2717 C164.1131,147.625785 164.888658,149.215695 166.456276,149.550413 C167.924886,149.854702 169.657517,149.14723 170.012293,147.69425 C170.449576,145.876124 170.89511,144.065605 171.332393,142.247478 C171.670668,140.893392 170.89511,139.303483 169.319241,138.968765 Z" id="Shape" fill="#ED6464"></path>
                <path d="M70.1632798,47.5071128 C67.4570761,46.1454197 64.6353638,44.9815144 61.7476465,43.9773609 C61.0875968,43.7491442 60.1140236,43.9241103 59.5199789,44.2436137 C58.9176836,44.5631171 58.3483907,45.2021239 58.1916289,45.8335235 C58.0266165,46.5181737 58.059619,47.278896 58.4804007,47.8874739 C58.9094329,48.5036591 59.4704752,48.8535914 60.2047804,49.112237 C60.8318276,49.3328465 61.4588748,49.5610632 62.085922,49.7968871 C63.8433042,50.4967517 65.567684,51.2650813 67.24256,52.1094832 C68.57091,52.7789189 70.4520515,52.4518082 71.1946074,51.150973 C71.9124114,49.9109955 71.5823866,48.2221918 70.1632798,47.5071128 Z" id="Shape" fill="#ED6464"></path>
                <path d="M27.136292,49.2643815 C25.222148,47.2865033 23.3080039,45.3086251 21.3938599,43.3231397 C20.3872841,42.28095 18.3246289,42.3037717 17.3098026,43.3231397 C16.2042194,44.4337943 16.2372219,45.9780608 17.3098026,47.0887154 C19.2239466,49.0665936 21.1380906,51.0444718 23.0522347,53.0299572 C24.0588104,54.0721469 26.1214656,54.0493252 27.136292,53.0299572 C28.2418752,51.9193026 28.2171233,50.3750361 27.136292,49.2643815 Z" id="Shape" fill="#ED6464"></path>
                <path d="M41.9956602,121.418899 C41.2036006,120.285423 39.3719627,119.615987 38.0436128,120.460389 C36.7895184,121.266755 35.6344315,122.179622 34.6856101,123.290276 C33.5800269,124.575897 32.7714661,125.88434 32.119667,127.413392 C31.8638978,128.014362 32.0701633,128.927229 32.4084387,129.467342 C32.7549648,130.02267 33.448017,130.547568 34.1328185,130.692105 C34.8753744,130.84425 35.7004365,130.813821 36.3604861,130.425852 C37.0040346,130.045491 37.3670619,129.558629 37.647583,128.919622 C38.0106103,128.189329 38.4478932,127.497071 38.9511811,126.850457 C39.4792208,126.257094 40.0732655,125.716981 40.7168139,125.222511 C40.7993201,125.169261 40.8818264,125.11601 40.9643326,125.06276 C41.5913798,124.659577 42.086417,124.172714 42.2926825,123.47285 C42.4824468,122.833843 42.39169,121.981834 41.9956602,121.418899 Z" id="Shape" fill="#ED6464"></path>
                <path d="M59.1817034,162.901091 C57.9771128,161.729578 56.7642715,160.558066 55.5596809,159.394161 C54.5201026,158.3824 52.5152018,158.351971 51.4756235,159.394161 C50.3947922,160.481994 50.3617897,162.079511 51.4756235,163.159736 C52.6802142,164.331249 53.8930555,165.502761 55.0976461,166.666667 C56.1372243,167.678427 58.1421252,167.708856 59.1817034,166.666667 C60.2625348,165.586441 60.2955372,163.981317 59.1817034,162.901091 Z" id="Shape" fill="#ED6464"></path>
                <path d="M15.0986362,137.188674 C14.7026064,136.618133 14.1085617,136.116056 13.3742564,135.963911 C12.664703,135.811767 11.7653853,135.819374 11.1465888,136.230164 C9.14993853,137.576643 7.15328828,138.923121 5.15663804,140.2696 C4.52959085,140.687997 4.04280422,141.144431 3.82828808,141.85951 C3.6385238,142.498517 3.72103001,143.342918 4.11705981,143.91346 C4.51308961,144.484002 5.10713431,144.986079 5.84143957,145.138223 C6.55099296,145.290368 7.45031064,145.282761 8.0691072,144.87197 C10.0657574,143.525492 12.0624077,142.179013 14.0590579,140.832535 C14.6861051,140.414137 15.1728918,139.957704 15.3874079,139.242625 C15.5854228,138.603618 15.494666,137.759216 15.0986362,137.188674 Z" id="Shape" fill="#ED6464"></path>
                <path d="M135.739214,37.762259 C135.673209,36.3168865 134.468619,35.0997307 132.851497,35.0997307 C131.341633,35.0997307 129.897775,36.3244937 129.96378,37.762259 C130.029785,39.2076316 131.234375,40.4247874 132.851497,40.4247874 C134.361361,40.4247874 135.805219,39.2000243 135.739214,37.762259 Z" id="Shape" fill="#F98D50"></path>
                <path d="M177.899887,28.177157 C177.833882,26.7317845 176.629291,25.5146287 175.01217,25.5146287 C173.502306,25.5146287 172.058447,26.7393917 172.124452,28.177157 C172.190457,29.6225296 173.395048,30.8396854 175.01217,30.8396854 C176.522033,30.8396854 177.965892,29.6149223 177.899887,28.177157 Z" id="Shape" fill="#F98D50"></path>
                <path d="M136.333259,83.4816742 C136.267254,82.0363017 135.062663,80.8191459 133.445542,80.8191459 C131.935678,80.8191459 130.49182,82.0439089 130.557824,83.4816742 C130.623829,84.9270467 131.82842,86.1442025 133.445542,86.1442025 C134.955405,86.1442025 136.399264,84.9194395 136.333259,83.4816742 Z" id="Shape" fill="#F98D50"></path>
                <path d="M198.980223,69.2485584 C198.914218,67.8031859 197.709628,66.5860301 196.092506,66.5860301 C194.582642,66.5860301 193.138784,67.8107931 193.204789,69.2485584 C193.270794,70.693931 194.475384,71.9110868 196.092506,71.9110868 C197.60237,71.9110868 199.054479,70.6863237 198.980223,69.2485584 Z" id="Shape" fill="#F98D50"></path>
                <path d="M175.523708,104.835151 C175.457703,103.389779 174.253113,102.172623 172.635991,102.172623 C171.126127,102.172623 169.682269,103.397386 169.748274,104.835151 C169.814279,106.280524 171.018869,107.49768 172.635991,107.49768 C174.145854,107.49768 175.597964,106.272917 175.523708,104.835151 Z" id="Shape" fill="#F98D50"></path>
                <path d="M158.601685,152.745447 C158.53568,151.300075 157.331089,150.082919 155.713967,150.082919 C154.204104,150.082919 152.760245,151.307682 152.82625,152.745447 C152.892255,154.19082 154.096846,155.407975 155.713967,155.407975 C157.223831,155.407975 158.66769,154.183212 158.601685,152.745447 Z" id="Shape" fill="#F98D50"></path>
                <path d="M103.075006,10.6577206 C103.009001,9.21234805 101.804411,7.99519223 100.187289,7.99519223 C98.6774255,7.99519223 97.2335668,9.21995527 97.2995718,10.6577206 C97.3655768,12.1030931 98.5701674,13.3202489 100.187289,13.3202489 C101.697153,13.3202489 103.141011,12.0954859 103.075006,10.6577206 Z" id="Shape" fill="#F98D50"></path>
                <path d="M80.212536,36.6668188 C80.146531,35.2214463 78.9419404,34.0042905 77.3248187,34.0042905 C75.8149551,34.0042905 74.3710964,35.2290535 74.4371014,36.6668188 C74.5031064,38.1121913 75.707697,39.3293471 77.3248187,39.3293471 C78.8346823,39.3293471 80.278541,38.1045841 80.212536,36.6668188 Z" id="Shape" fill="#F98D50"></path>
                <path d="M44.8751269,36.9406789 C44.8091219,35.4953063 43.6045312,34.2781505 41.9874096,34.2781505 C40.4775459,34.2781505 39.0336873,35.5029136 39.0996923,36.9406789 C39.1656972,38.3860514 40.3702879,39.6032072 41.9874096,39.6032072 C43.4972732,39.6032072 44.9411318,38.3784442 44.8751269,36.9406789 Z" id="Shape" fill="#F98D50"></path>
                <path d="M46.3602386,88.9588753 C46.2942336,87.5135028 45.089643,86.296347 43.4725213,86.296347 C41.9626577,86.296347 40.518799,87.52111 40.584804,88.9588753 C40.650809,90.4042479 41.8553996,91.6214037 43.4725213,91.6214037 C44.9823849,91.6214037 46.4262436,90.3966406 46.3602386,88.9588753 Z" id="Shape" fill="#F98D50"></path>
                <path d="M15.7751871,98.8102302 C15.7091821,97.3648577 14.5045915,96.1477019 12.8874698,96.1477019 C11.3776062,96.1477019 9.93374751,97.3724649 9.99975248,98.8102302 C10.0657574,100.255603 11.2703481,101.472759 12.8874698,101.472759 C14.3973334,101.472759 15.841192,100.247995 15.7751871,98.8102302 Z" id="Shape" fill="#F98D50"></path>
                <path d="M54.9656362,180.945426 C54.8996312,179.500053 53.6950406,178.282897 52.0779189,178.282897 C50.5680552,178.282897 49.1241966,179.50766 49.1902016,180.945426 C49.2562065,182.390798 50.4607972,183.607954 52.0779189,183.607954 C53.5877825,183.607954 55.0398918,182.383191 54.9656362,180.945426 Z" id="Shape" fill="#F98D50"></path>
            </g>
        </g>
    </g>
</svg>