<svg xmlns="http://www.w3.org/2000/svg" viewBox="0 0 117.17 226.51"><defs><style>.cls-1{fill:#f4cfa6;}.cls-2{fill:#f8d9b3;}.cls-3{fill:#294554;}.cls-4{fill:#292c2d;}.cls-5{fill:#233a49;}.cls-6{fill:#e16b26;}.cls-7{fill:#070606;}.cls-8{fill:#ed7c23;}.cls-9{fill:#e4e7ea;}.cls-10{fill:#eef0f2;}.cls-11{fill:none;stroke:#674d22;stroke-linecap:round;stroke-miterlimit:10;stroke-width:0.5px;}.cls-12{fill:#05b1a0;}.cls-13{fill:#009b89;}.cls-14{fill:#f59bbb;}.cls-15{fill:#cfcfce;}.cls-16{fill:#f7c912;}.cls-17{fill:#e9b620;}</style></defs><title>Asset 122</title><g id="Layer_2" data-name="Layer 2"><g id="Layer_1-2" data-name="Layer 1"><path id="Hand_L_B" data-name="Hand L B" class="cls-1" d="M94.7,52.57s5.63-.76,6.29-2.38,4.54-5.8,3.15-6.7a5.76,5.76,0,0,0-2-1L96.64,45.4l-4,5.14Z"/><path class="cls-2" d="M91.51,50.45s-2.45,3.78-3.89,4.31-2.2,5.53-2.2,5.53S89.59,62,90.2,61.36s5-7.37,5-7.37l-.78-4.83Z"/><path class="cls-3" d="M32.37,99.07a32.56,32.56,0,0,0-7.51,30.15s.63,18.73,3.44,26c0,0-4.69,33.37-1.88,48.58l9.48.31S44.28,156,44.6,153.4s-.33-28.28-.33-28.28,13.46-12.88,11.89-25.46Z"/><path class="cls-1" d="M25.24,109.12s-1.86,2.7-1,4.07c0,0,3.7,3.21,5.08,2.69.64-.24,3.77-2.71,4.14-3.72s-.57-4.58-.57-4.58l-3.6-1.2Z"/><path class="cls-4" d="M26.89,203.76s-2,20.39-2.52,21.29l2.9.28s.48-9.59,1.26-9.9S32,225,38.32,225.87s6.85.86,7.1,0-7.12-2.36-9-19.72S26.89,203.76,26.89,203.76Z"/><path class="cls-2" d="M22.86,106.16a8,8,0,0,0,1.88,3.57c2.11,2.22,2,5.86,4,6.06s6.93-5.14,5.88-7.18-3.47-5.23-4.4-5.69-5.85-4.09-5.85-4.09Z"/><path class="cls-4" d="M51.46,202.15s-1.53,20.44-2,21.35l2.93.2s.25-9.6,1-9.93,3.73,9.47,10.13,10.16,6.93.67,7.17-.24-7.24-2.16-9.6-19.47S51.46,202.15,51.46,202.15Z"/><path class="cls-5" d="M56.28,99.34s3.6,16.74,3.9,23.32,2.1,25.79,2.7,28.54-1.8,51-1.8,51H51.19s-5.69-39.51-3-44.72c0,0-7.49-30.46-4.79-35.12S56.28,99.34,56.28,99.34Z"/><path class="cls-6" d="M35.79.48S17.91-.83,14.84,11,5.92,25.34,7.69,30.56,13,32.93,12.8,37,4.9,41.76,4.91,48.46s4.36,5.28,1.53,10.29S8,70.18,12.11,70.11s9.86,1.7,12.76-4.29,8.73,2.12,16.88-1.13,8.57-7.56,13.72-5.07,4.74-1.89,2.32-6.16S54.63,46,56.55,42.32s.39-6.82-2-9.35,1-3.38-.18-8.06S50.6,7.28,44,3.69,39.54,1,35.79.48Z"/><path class="cls-1" d="M31.73,45.29l.93,7s6.28,8,9.55-.94L40.4,40.37Z"/><path id="Face" class="cls-2" d="M52.49,18.68c2.07,12.49-2.3,25.81-14.22,28S16.75,39.23,14.8,27C12.73,14.05,17.71,3.62,29.63,1.42S50.42,6.19,52.49,18.68Z"/><path id="Eye_R" data-name="Eye R" class="cls-7" d="M46.05,23.29c.25,1.5-.44,2.87-1.53,3.07S42.35,25.51,42.1,24s.44-2.87,1.53-3.07S45.81,21.79,46.05,23.29Z"/><path id="Eye_L" data-name="Eye L" class="cls-7" d="M32.29,26.11c.25,1.5-.44,2.87-1.53,3.07s-2.18-.85-2.42-2.34.44-2.87,1.53-3.07S32,24.62,32.29,26.11Z"/><path class="cls-8" d="M52.13,26.51a13.42,13.42,0,0,0,0,5,3.21,3.21,0,0,0,1.7,2.23l0,0c.72-.16.54-1.68.62-2.45.19-1.81,2-3.91,1.13-7.28C54.36,19.32,51.63,8,45.41,3.74,40.4.29,39.6.54,35.85,0c0,0-17.95-.84-21,11S5.92,25.34,7.69,30.56c1.08,3.17,2.79,3.36,3.94,3.95a7.41,7.41,0,0,1,.85.32c1.55.74,5.93,6.72,7.36,9.14s-2.13,7.71-.23,9.1,1.95,3.6,3.83,3.84,2.94-2,1.94-4.89-4.3-2.83-1.31-5.55-2.94-8.08-5.33-11.08-.57-5.21,3.6-7.66,6.87-4.3,7.06-7c.29-4.13,4.53-2,5.86-4.23C36.75,14,38.59,5.69,41.6,7.6,45.52,10.08,45.66,12,47.71,14S52.79,22.68,52.13,26.51Z"/><path class="cls-9" d="M47.56,50.94A25.08,25.08,0,0,1,56.23,54C59.86,56.33,70.55,63.5,72,63.27S83.85,52,86.25,53.09s5.16,7.6,5,8.82c-.32,2.22-14.06,13.4-19.09,12.85-6.7-.74-14.49-5.64-17.82-7.44S47.56,50.94,47.56,50.94Z"/><path class="cls-10" d="M24.35,75.07c-.07,1,5.19,22.92,6.77,23.84,2.14,1.25,24.46,1.38,24.46,1.38,1.85-1.51,4.32-25.16,4-29.86-.25-4-4-11.12-5.11-14.79s-7.69-4.83-8.76-4.91-1.7-2.17-3.83-.45-7.47,1-9,.2a2,2,0,0,0-2.5.5c-.61,2.17-5.17,1.16-9.79,5.42,0,0-21.4,19.44-20.63,26.77s17.18,22.2,18.54,24.91S30.14,99.4,29.17,97.86s-9.65-11.2-13.9-13.52C12,82.56,24.35,75.07,24.35,75.07Z"/><path class="cls-11" d="M29.92,51.5s6.73,15.05,11.47,19.88,4.63,9,5.29,9.44S49,75,47.91,66.94s-.64-14.77-2.37-16.4"/><path class="cls-12" d="M49.91,84.75a2.48,2.48,0,0,1-3.43.94,2.64,2.64,0,0,1-.6-3.6,2.48,2.48,0,0,1,3.43-.94A2.64,2.64,0,0,1,49.91,84.75Z"/><path class="cls-13" d="M48.35,80.81c.41.3,1,.74,1,1,.1.46.7,1.11-.18,1.72s.35.93-.64,1.34-1,.94-2.07.61a.63.63,0,0,0-.24,0,2.55,2.55,0,0,0,2.23.58,2.68,2.68,0,0,0,2-3.18A2.63,2.63,0,0,0,48.35,80.81Z"/><path id="Hand_L_F" data-name="Hand L F" class="cls-2" d="M91.32,50.59a21.45,21.45,0,0,1,1.27-4.52,10.85,10.85,0,0,1,4.53-3.39c1.81-.51,4.09-1.33,4.8-1.39.93-.09.57,1.42-.33,1.9s-3.43,1.75-4.11,2,.56,3-.69,5.37A22.48,22.48,0,0,0,95.18,54Z"/><path class="cls-14" d="M84.86,63.86,83.3,65.32a1.58,1.58,0,0,1-2.21,0l-.67-.69a1.55,1.55,0,0,1,.08-2.25L82.05,61Z"/><polygon class="cls-15" points="85.86 63.01 84.4 64.34 81.61 61.31 83.83 59.34 85.86 63.01"/><path class="cls-16" d="M117.17,33.93c-.62.33-31.41,29.16-31.41,29.16l-2.8-3L114.9,31.19Z"/><polygon class="cls-17" points="115.52 31.93 84 61.23 85.1 62.39 116.52 33.15 115.52 31.93"/><path class="cls-2" d="M104.11,43.91a3,3,0,0,1,.2,1.94c-.31.78-2.24,5-3.38,5s-2.23-.13-2.27-.6.21-5.08,1.12-5.62S103.09,43.46,104.11,43.91Z"/></g></g></svg>