<svg xmlns="http://www.w3.org/2000/svg" viewBox="0 0 226.58 226.53"><defs><style>.cls-4{fill:#f6accc}.cls-5{fill:#f496bc}</style></defs><g id="Layer_2" data-name="Layer 2"><g id="Layer_1-2" data-name="Layer 1"><path d="M152 165.37s29.58-.4 43.8 12.86c0 0-16.6-49.91 30.79-52.25 0 0-12.14-36.29-4.72-50.27 0 0-28.57-15.12-14.24-38.71 0 0-22 18.51-33.47-3.73-6.36-12.32-2.8-27.8-2.8-27.8S144.44 19 112.18 15.53 69.77 0 69.77 0 68.92 31.95 51 34.59a87 87 0 0 1-32.53-1.41s25.34 43.22 6.94 67.88S0 125.51 0 125.51s39.5 3 39.65 20.16c0 0 11.86.84 14.08 8.26s-9.3 22.29-9.3 22.29 47.93-18.65 74.42-13.76 33.15 2.91 33.15 2.91z" fill="#f9cce0" opacity=".4"/><path d="M117.44 37c-41.83-1-68.79 28-69.63 65.17-.49 22 8.78 41.1 25 53.1a17.86 17.86 0 0 1 7.36 14.29v12.92l72.24-.07v-15a18.34 18.34 0 0 1 5.94-13.68c13-11.74 20.18-29.52 20.64-50 .78-37.18-21.27-65.66-61.55-66.73z" fill="#f9cce0"/><path d="M83.93 141.48a16.36 16.36 0 0 1-16.4-24.07c-3.59-2.53-5.91-5.66-5.81-10.37.08-3.48 1.43-5.55 3.63-7.92a13.67 13.67 0 0 1 3.32-14.23 17.18 17.18 0 0 1 2.94-16.76c3.79-4.66 10.28-4.68 15.16-4.58.26-4.42 2.29-9.35 6.62-11.32a12.38 12.38 0 0 1 16.41 6.07v.11a12.19 12.19 0 0 1-.55 10.12 6.28 6.28 0 0 1 2.56 5.2 6.35 6.35 0 0 1-5.26 6.1 10.32 10.32 0 0 1 2.83 16.93 10.32 10.32 0 0 1-2.11 15.66 18 18 0 0 1 3.42 11.35c-.1 4.68-3.45 11.36-3.45 11.36a12.35 12.35 0 0 1 2 7 12.51 12.51 0 0 1-25-.49z" fill="#f59fb9"/><path d="M145.11 142a16.49 16.49 0 0 0 14.26-4.57c5.13-5.09 5.15-12.78 2.14-18.91 3.7-2.39 7.22-5.34 7.32-10.06.08-3.48-1.18-5.6-3.27-8.06a13.63 13.63 0 0 0-2.69-14.34c2.1-4.93 1.22-11.47-2.78-16.84-3.58-4.8-7.12-7.16-12-7.25-.06-4.43-4.23-9.12-9.48-10.17-6.7-1.34-12.53 0-15.64 6.07v.11a12.18 12.18 0 0 0 .1 10.13 6.3 6.3 0 0 0 2.2 11.4 10.39 10.39 0 0 0-6.5 9.39 10.26 10.26 0 0 0 2.92 7.42 10.31 10.31 0 0 0 1.4 15.72 18.09 18.09 0 0 0-3.92 11.2c-.1 4.68 2.94 11.49 2.94 11.49a12.49 12.49 0 1 0 22.72 7.42zM83.93 141.48a16.36 16.36 0 0 1-16.4-24.07c-3.59-2.53-5.91-5.66-5.81-10.37.08-3.48 1.43-5.55 3.63-7.92a13.67 13.67 0 0 1 3.32-14.23 17.18 17.18 0 0 1 2.94-16.76c3.79-4.66 10.28-4.68 15.16-4.58.26-4.42 2.29-9.35 6.62-11.32a12.38 12.38 0 0 1 16.41 6.07v.11a12.19 12.19 0 0 1-.55 10.12 6.28 6.28 0 0 1 2.56 5.2 6.35 6.35 0 0 1-5.26 6.1 10.32 10.32 0 0 1 2.83 16.93 10.32 10.32 0 0 1-2.11 15.66 18 18 0 0 1 3.42 11.35c-.1 4.68-3.45 11.36-3.45 11.36a12.35 12.35 0 0 1 2 7 12.51 12.51 0 0 1-25-.49z" class="cls-4"/><path d="M131.28 125.37a1.3 1.3 0 0 1 .7.22 1.29 1.29 0 0 1 .35 1.79 11.14 11.14 0 0 0 2.78 15.34 1.3 1.3 0 0 1-1.51 2.11 13.73 13.73 0 0 1-3.42-18.89 1.3 1.3 0 0 1 1.1-.57zM137.19 92.72a12.67 12.67 0 0 1-8-6.53c-3-5.52-2.07-11.85 2.1-14.11a1.29 1.29 0 1 1 1.24 2.27c-2.91 1.58-3.38 6.33-1.05 10.6s6.58 6.46 9.49 4.88a1.29 1.29 0 1 1 1.24 2.27 7.13 7.13 0 0 1-5.02.62zM155.94 96.7a1.3 1.3 0 0 1-.47.06 8.61 8.61 0 1 1 .86-17.19 1.29 1.29 0 1 1-.13 2.58 6 6 0 1 0-.61 12 1.29 1.29 0 0 1 .34 2.52zM155.29 127h-.09a6.83 6.83 0 0 1-6.19-7.44 6.88 6.88 0 0 1 7.48-6.19 1.29 1.29 0 0 1 1.17 1.4 1.3 1.3 0 0 1-1.41 1.17 4.28 4.28 0 0 0-4.66 3.85 4.25 4.25 0 0 0 3.85 4.63 1.29 1.29 0 0 1-.15 2.58z" class="cls-5"/><path d="M134.61 101.27h-.09a6.84 6.84 0 1 1-2.2-13.51 1.29 1.29 0 1 1 .42 2.55 4.26 4.26 0 1 0 1.37 8.4 1.29 1.29 0 0 1 .51 2.54zM130.55 112.61a1.29 1.29 0 0 1 0-2.38 18.38 18.38 0 0 1 21.45 6.25 1.3 1.3 0 0 1-2 1.6c-7.91-10-18.32-5.53-18.42-5.49a1.29 1.29 0 0 1-1.03.02zM87.28 149.4a1.29 1.29 0 0 1-1.08-.61 13.64 13.64 0 0 1-2-7.79 13.83 13.83 0 0 1 6.26-11 1.29 1.29 0 1 1 1.42 2.16 11.23 11.23 0 0 0-5.1 8.89 11.05 11.05 0 0 0 1.63 6.32 1.3 1.3 0 0 1-1.13 2zM75.73 120a13.92 13.92 0 0 1-13.66-14.2 1.3 1.3 0 0 1 2.59.05 11.34 11.34 0 0 0 11.12 11.57 1.29 1.29 0 1 1-.06 2.58zM92.49 82.42a8.13 8.13 0 0 1-5.36-2 1.49 1.49 0 0 1 2-2.21c2.81 2.52 8.15 1.2 11.9-3a12.64 12.64 0 0 0 3.31-6.9 5.87 5.87 0 0 0-1.63-5.2 1.49 1.49 0 0 1 2-2.21 8.73 8.73 0 0 1 2.59 7.72 15.62 15.62 0 0 1-4.06 8.56 14.64 14.64 0 0 1-10.75 5.24zM77.33 93.43a1.29 1.29 0 0 1-.41-2.51 6 6 0 1 0-4.09-11.32 1.29 1.29 0 1 1-.88-2.43 8.6 8.6 0 1 1 5.85 16.18 1.3 1.3 0 0 1-.47.08zM102.21 139.79a1.29 1.29 0 0 1-.41-2.51A6 6 0 1 0 97.71 126a1.29 1.29 0 1 1-.88-2.43 8.6 8.6 0 1 1 5.85 16.18 1.3 1.3 0 0 1-.47.04z" class="cls-5"/><path d="M76.72 131.12a1.29 1.29 0 0 1 0-2.58 4.26 4.26 0 1 0-.42-8.51 1.29 1.29 0 1 1-.13-2.58 6.84 6.84 0 1 1 .68 13.67zM92.6 90.52a1.29 1.29 0 0 1 .16 1c-.12.47-2.63 11.14 8.59 17.14a1.29 1.29 0 0 1 .53 1.75 1.3 1.3 0 0 1-1.76.53 18.24 18.24 0 0 1-9.88-20 1.3 1.3 0 0 1 1.58-.94 1.29 1.29 0 0 1 .78.52zM100.08 77.16a1.47 1.47 0 0 1 .49-1.06 1.49 1.49 0 0 1 2.1.09A21.19 21.19 0 0 1 108.24 91a1.49 1.49 0 0 1-3-.06 18.24 18.24 0 0 0-4.8-12.79 1.47 1.47 0 0 1-.36-.99z" class="cls-5"/><path d="M92.85 101.65a1.29 1.29 0 0 1 .53 2.34 18.7 18.7 0 0 1-13.55 3.1 1.29 1.29 0 1 1 .41-2.56 16.1 16.1 0 0 0 11.66-2.67 1.3 1.3 0 0 1 .95-.21zM125.59 122.6a1.28 1.28 0 0 1 0-1 1.3 1.3 0 0 1 1.69-.71 18.53 18.53 0 0 1 9.94 9.64 1.3 1.3 0 0 1-2.37 1.06 16 16 0 0 0-8.56-8.3 1.29 1.29 0 0 1-.7-.69zM162.45 86.73c.23-.3.46-.62.42-.66 2.1-4.93 1.22-11.47-2.78-16.84-3.58-4.8-7.12-7.16-12-7.25-.06-4.43-4.23-9.12-9.48-10.17-3.71-.74-7.15-.67-10 .58 4.58-.46 13.88-.16 15.4 7.63 1.22 6.25-1.74 7-1.74 7a20.72 20.72 0 0 1 14.53 3.36c7.49 4.88 6.6 14.46 4 17.56a4.72 4.72 0 0 0 1.65-1.21zM159.37 137.43c5.13-5.09 5.15-12.78 2.14-18.91 0 0 4 11.63-2.09 16.09s-16 3.51-16 3.51 2.13 9.2-5.76 15l2.6-1.6a12.41 12.41 0 0 0 4.56-9.42l.25-.15a16.49 16.49 0 0 0 14.3-4.52zM105 52.93a12.41 12.41 0 0 0-11.64-.69c-4.33 2-6.36 6.9-6.62 11.32-4.87-.1-11.36-.08-15.16 4.58a17.26 17.26 0 0 0-3.34 15.56l.4 1.19s-.93-10.54 5.18-16.18c4.54-4.19 16.66-1.25 16.66-1.25s-2.78-10.26 4.16-14.4a10.6 10.6 0 0 1 10.36-.13zM68.32 131.4c-1.1-5.66 1.34-13 1.34-13-2.75-1.78-4.62-8.8-4.94-11.62a33.47 33.47 0 0 1 .63-7.68c-2.19 2.36-3.53 4.43-3.61 7.89-.11 4.72 2.22 7.84 5.81 10.37a16.35 16.35 0 0 0 4.91 21.18 12.06 12.06 0 0 1-4.14-7.14zM108.73 145.21c-.5.9-4.66 7.87-11.82 7a11.11 11.11 0 0 1-9.55-7.09L85 146.31a12.53 12.53 0 0 0 23.76-1.1z" class="cls-5"/><path fill="#a9a8a8" d="M82.01 212.46l6.69 14 55.41.07 7.16-13.99-69.26-.08z"/><path d="M138 226.52h6.06l6.94-13.38-1.38-.6-60.85-.07-6.46.53 2.35 4.92c2.13.53 8.16 1.33 25.15 1.51 25.73.27 32.94-1.23 30.36 3.49-.91 1.61-1.6 2.77-2.17 3.6z" fill="#9b9b9b"/><rect width="79.05" height="47.06" x="76.09" y="167.2" rx="9.23" ry="9.23" transform="rotate(.07 106.516 180.007)" fill="#bcbcbc"/><path d="M155.19 172.35a5 5 0 0 0-5-5l-69.33-.21a5 5 0 0 0-3.66 1.6c2.54 1 23 1 46.41 1.31s26.25-1.23 28.89.52c0 0 .87 10.09-.81 10.53s-69.06-2.32-69.7-.23.32 6.27 2.45 6.44 64.2.17 66.62 1.7c2.17 1.37 2.27 8.34-1.14 9.17-2.8.68-57-.85-59.17 0s.59 5.61 2.31 6.48 49.33-.57 51.37 3.08c1.38 2.47.23 4.46-.55 6.52h6a5 5 0 0 0 5-4.94z" fill="#b0b0b0"/></g></g></svg>