<svg xmlns="http://www.w3.org/2000/svg" width="78" height="144" viewBox="0 0 78 144">
    <defs>
        <linearGradient id="a" x1="16.904%" x2="91.223%" y1="0%" y2="103.131%">
            <stop offset="0%" stop-color="#F2C637"/>
            <stop offset="100%" stop-color="#FAA367"/>
        </linearGradient>
        <linearGradient id="b" x1="50%" x2="50%" y1="0%" y2="100%">
            <stop offset="0%" stop-color="#938ADF"/>
            <stop offset="100%" stop-color="#23679B"/>
        </linearGradient>
        <linearGradient id="c" x1="0%" x2="86.466%" y1="-15.367%" y2="104.176%">
            <stop offset="0%" stop-color="#F8D8A3"/>
            <stop offset="100%" stop-color="#F15A29"/>
        </linearGradient>
        <linearGradient id="d" x1="86.196%" x2="-23.149%" y1="15.505%" y2="95.057%">
            <stop offset="0%" stop-color="#D5C2B4"/>
            <stop offset="100%" stop-color="#F3EDE8"/>
        </linearGradient>
        <linearGradient id="e" x1="107.243%" x2="-22.782%" y1="51.565%" y2="47.727%">
            <stop offset="0%" stop-color="#D5C2B4"/>
            <stop offset="100%" stop-color="#F3EDE8"/>
        </linearGradient>
    </defs>
    <g fill="none" fill-rule="evenodd">
        <path fill="url(#a)" d="M38.955 32.385l10.128 20.257a.757.757 0 0 1-.677 1.095H28.15a.757.757 0 0 1-.677-1.095L37.6 32.385a.757.757 0 0 1 1.354 0z" opacity=".8"/>
        <rect width="22.706" height="22.706" x="49.631" y="18.165" fill="url(#b)" opacity=".8" rx="3.027" transform="rotate(-45 60.984 29.518)"/>
        <circle cx="13.68" cy="12.488" r="12.488" fill="url(#c)" opacity=".8"/>
        <path fill="#1DA99B" d="M12.442 55.277c-.372 1.388-4.597 2.527-5.712 1.444-.998-.97.138-5.209 1.486-5.55 1.508-.38 4.598 2.72 4.226 4.106zM15.978 64.333c-.718-1.244 1.464-5.037 3.019-5.06 1.39-.02 3.585 3.781 2.872 4.976-.797 1.335-5.173 1.328-5.891.084zM68.553 57.521c0 1.437-3.787 3.63-5.145 2.873-1.214-.678-1.214-5.067 0-5.745 1.358-.758 5.145 1.436 5.145 2.872zM53.82 65.847c.719-1.244 5.095-1.251 5.892.084.713 1.195-1.482 4.995-2.872 4.975-1.555-.022-3.737-3.815-3.02-5.06zM45.441 71.902c-.718 1.243-5.094 1.25-5.891-.085-.713-1.194 1.482-4.995 2.872-4.975 1.555.022 3.737 3.816 3.02 5.06zM31.115 74.929c-.718-1.244 1.464-5.037 3.019-5.06 1.39-.02 3.585 3.781 2.872 4.976-.796 1.335-5.173 1.328-5.89.084z"/>
        <path fill="url(#d)" d="M4.22 90.066c.008-6.283 11.615-6.283 34.82 0 23.196-6.475 34.8-6.475 34.81 0 .038 22.06-2.593 39.41-7.891 52.052a1.514 1.514 0 0 1-1.396.928H13.508c-.61 0-1.161-.366-1.397-.929-5.292-12.641-7.922-29.991-7.892-52.05z"/>
        <rect width="4.541" height="66.604" x="11.788" y="22.706" fill="#1DA99B" rx="2.271"/>
        <rect width="4.541" height="37.55" x="36.008" y="51.76" fill="#1DA99B" rx="2.271"/>
        <rect width="4.541" height="48.439" x="58.713" y="40.87" fill="#1DA99B" rx="2.271"/>
        <path fill="url(#e)" d="M1.95 84.768h74.17a1.514 1.514 0 0 1 1.507 1.65l-.97 10.682a1.514 1.514 0 0 1-1.508 1.377H2.921A1.514 1.514 0 0 1 1.413 97.1l-.97-10.681a1.514 1.514 0 0 1 1.508-1.65z"/>
    </g>
</svg>
