<svg xmlns="http://www.w3.org/2000/svg" xmlns:xlink="http://www.w3.org/1999/xlink" width="157" height="139" viewBox="0 0 157 139">
    <defs>
        <rect id="b" width="82" height="116" rx="2.89"/>
        <filter id="a" width="113.4%" height="109.5%" x="-6.7%" y="-3%" filterUnits="objectBoundingBox">
            <feOffset dy="2" in="SourceAlpha" result="shadowOffsetOuter1"/>
            <feGaussianBlur in="shadowOffsetOuter1" result="shadowBlurOuter1" stdDeviation="1.5"/>
            <feColorMatrix in="shadowBlurOuter1" values="0 0 0 0 0 0 0 0 0 0 0 0 0 0 0 0 0 0 0.1 0"/>
        </filter>
    </defs>
    <g fill="none" fill-rule="evenodd">
        <g transform="rotate(-15 86.479 6.032)">
            <use fill="#000" filter="url(#a)" xlink:href="#b"/>
            <use fill="#F4F4F4" xlink:href="#b"/>
            <rect width="46.754" height="7.25" x="4.316" y="4" fill="#979797" fill-opacity=".5" rx="1.445"/>
            <rect width="68" height="3.625" x="4.316" y="29.375" fill="#979797" fill-opacity=".5" rx=".723"/>
            <rect width="44" height="3.625" x="4.316" y="36.625" fill="#979797" fill-opacity=".5" rx=".723"/>
            <rect width="42" height="3.625" x="4.316" y="43.875" fill="#979797" fill-opacity=".5" rx=".723"/>
            <rect width="68" height="3.625" x="4.316" y="58" fill="#979797" fill-opacity=".5" rx=".723"/>
            <rect width="44" height="3.625" x="4.316" y="65.25" fill="#979797" fill-opacity=".5" rx=".723"/>
            <rect width="42" height="3.625" x="4.316" y="72.5" fill="#979797" fill-opacity=".5" rx=".723"/>
            <rect width="68" height="3.625" x="4.316" y="87" fill="#979797" fill-opacity=".5" rx=".723"/>
            <rect width="44" height="3.625" x="4.316" y="94.25" fill="#979797" fill-opacity=".5" rx=".723"/>
            <rect width="42" height="3.625" x="4.316" y="101.5" fill="#979797" fill-opacity=".5" rx=".723"/>
        </g>
        <g fill-rule="nonzero">
            <path fill="#FAE5F0" d="M124.375 110.169s10.106 2.562 13.737 8.373c0 0-1.099-18.504 15.247-14.978 0 0-.822-13.461 2.979-17.543 0 0-8.347-7.753-1.317-14.477 0 0-9.177 4.295-11.053-4.322-1.042-4.774 1.582-9.72 1.582-9.72s-10.398 2.151-21.063-1.973-13.02-9.155-13.02-9.155-3.204 10.799-9.545 10.063a30.66 30.66 0 0 1-10.945-3.447s4.684 17.024-3.83 23.74c-8.512 6.717-10.88 6.006-10.88 6.006s13.173 4.624 11.66 10.479c0 0 3.96 1.368 4.039 4.096.079 2.728-5.2 6.74-5.2 6.74s18.018-1.977 26.59 2.104c8.57 4.08 11.019 4.014 11.019 4.014z" opacity=".9"/>
            <path fill="#F9CCE0" d="M124.32 63.318c-14.15-4.156-25.972 3.257-29.648 15.833-2.174 7.445-.76 14.792 3.667 20.357a6.294 6.294 0 0 1 1.202 5.535l-1.179 4.399 24.598 6.565 1.368-5.106a6.463 6.463 0 0 1 3.27-4.115c5.496-2.81 9.562-8.209 11.587-15.138 3.657-12.586-1.252-24.292-14.866-28.33z"/>
            <path fill="#F59FB9" d="M103.382 95.828a5.766 5.766 0 0 1-3.387-9.69c-.992-1.189-1.496-2.466-1.032-4.06.344-1.177.993-1.759 1.958-2.365a4.818 4.818 0 0 1 2.428-4.541 6.055 6.055 0 0 1 2.53-5.438c1.715-1.24 3.926-.655 5.578-.176.492-1.48 1.632-2.974 3.286-3.25a4.363 4.363 0 0 1 5.032 3.564l-.01.037a4.296 4.296 0 0 1-1.11 3.395c.451.563.6 1.31.397 2.004a2.238 2.238 0 0 1-2.347 1.596 3.637 3.637 0 0 1-.58 6.022 3.637 3.637 0 0 1-2.147 5.138 6.344 6.344 0 0 1 .129 4.176c-.461 1.584-2.21 3.552-2.21 3.552.27.832.285 1.726.041 2.565a4.409 4.409 0 0 1-8.465-2.447l-.091-.082z"/>
            <path fill="#F6ACCC" d="M124.16 101.585a5.811 5.811 0 0 0 5.272-.255c2.21-1.265 2.919-3.88 2.453-6.242 1.478-.476 2.945-1.16 3.41-2.757.345-1.177.109-2.014-.378-3.042a4.804 4.804 0 0 0 .392-5.127c1.165-1.486 1.462-3.793.59-5.986-.781-1.96-1.77-3.087-3.424-3.562.384-1.514-.608-3.49-2.3-4.327-2.158-1.067-4.265-1.143-5.877.64l-.01.037a4.293 4.293 0 0 0-.89 3.458 2.22 2.22 0 0 0-.291 4.08 3.662 3.662 0 0 0-3.07 2.605 3.616 3.616 0 0 0 .318 2.792 3.633 3.633 0 0 0-.957 5.479 6.375 6.375 0 0 0-2.356 3.455c-.461 1.584-.048 4.18-.048 4.18a4.402 4.402 0 1 0 7.058 4.598l.109-.026zM103.382 95.828a5.766 5.766 0 0 1-3.387-9.69c-.992-1.189-1.496-2.466-1.032-4.06.344-1.177.993-1.759 1.958-2.365a4.818 4.818 0 0 1 2.428-4.541 6.055 6.055 0 0 1 2.53-5.438c1.715-1.24 3.926-.655 5.578-.176.492-1.48 1.632-2.974 3.286-3.25a4.363 4.363 0 0 1 5.032 3.564l-.01.037a4.296 4.296 0 0 1-1.11 3.395c.451.563.6 1.31.397 2.004a2.238 2.238 0 0 1-2.347 1.596 3.637 3.637 0 0 1-.58 6.022 3.637 3.637 0 0 1-2.147 5.138 6.344 6.344 0 0 1 .129 4.176c-.461 1.584-2.21 3.552-2.21 3.552.27.832.285 1.726.041 2.565a4.409 4.409 0 0 1-8.465-2.447l-.091-.082z"/>
            <path fill="#F496BC" d="M120.97 94.662a.455.455 0 0 1 .174.78 3.926 3.926 0 0 0-.453 5.476.458.458 0 0 1-.706.58 4.839 4.839 0 0 1 .558-6.742.458.458 0 0 1 .427-.094zM125.96 84.087a4.465 4.465 0 0 1-2.128-2.953c-.518-2.152.376-4.222 2.002-4.611a.456.456 0 1 1 .215.886c-1.135.272-1.728 1.846-1.324 3.512.403 1.666 1.65 2.8 2.785 2.527a.456.456 0 1 1 .215.886 2.513 2.513 0 0 1-1.765-.247zM131.98 87.152a.458.458 0 0 1-.166-.022 3.034 3.034 0 1 1 1.86-5.774.455.455 0 0 1-.279.867 2.117 2.117 0 1 0-1.302 4.03.455.455 0 0 1-.114.888v.011zM128.995 97.407l-.031-.008a2.407 2.407 0 0 1-1.429-3.097 2.425 2.425 0 0 1 3.111-1.425.455.455 0 1 1-.316.853 1.508 1.508 0 0 0-1.937.886 1.498 1.498 0 0 0 .888 1.927.455.455 0 0 1-.286.864z"/>
            <path fill="#F496BC" d="M124.302 86.762l-.03-.008a2.412 2.412 0 1 1 .482-4.8.455.455 0 1 1-.09.907 1.501 1.501 0 1 0-.299 2.984.457.457 0 0 1-.058.911l-.005.006zM121.885 90.252a.455.455 0 0 1 .217-.81 6.478 6.478 0 0 1 6.732 4.084.458.458 0 0 1-.827.362c-1.78-4.125-5.732-3.553-5.77-3.549a.455.455 0 0 1-.352-.087zM103.8 98.83a.455.455 0 0 1-.312-.307 4.807 4.807 0 0 1 .03-2.834 4.874 4.874 0 0 1 3.134-3.174.455.455 0 1 1 .286.865 3.958 3.958 0 0 0-2.547 2.561 3.894 3.894 0 0 0-.021 2.3.458.458 0 0 1-.568.578l-.002.01zM102.55 87.768a4.906 4.906 0 0 1-3.355-6.08.458.458 0 0 1 .877.253 3.996 3.996 0 0 0 2.73 4.953.455.455 0 1 1-.256.873h.004zM111.683 76.504a2.865 2.865 0 0 1-1.642-1.17.525.525 0 0 1 .882-.57c.727 1.114 2.665 1.152 4.325.064a4.455 4.455 0 0 0 1.756-2.047c.29-.614.26-1.331-.08-1.919a.525.525 0 0 1 .882-.57c.528.867.594 1.94.177 2.865a5.505 5.505 0 0 1-2.163 2.543 5.16 5.16 0 0 1-4.137.804zM105.518 78.869a.455.455 0 0 1 .09-.892 2.12 2.12 0 1 0-.36-4.227.455.455 0 1 1-.078-.907 3.032 3.032 0 1 1 .515 6.041.46.46 0 0 1-.167-.015zM109.759 96.92a.455.455 0 0 1 .09-.892 2.115 2.115 0 1 0-.364-4.213.455.455 0 0 1-.078-.908 3.032 3.032 0 1 1 .515 6.042.458.458 0 0 1-.163-.03z"/>
            <path fill="#F496BC" d="M101.872 91.643a.455.455 0 1 1 .236-.878 1.501 1.501 0 1 0 .633-2.935.455.455 0 1 1 .191-.89 2.412 2.412 0 1 1-1.015 4.715l-.045-.012zM110.981 79.27a.455.455 0 0 1-.036.356c-.084.149-1.912 3.552 1.36 6.618a.455.455 0 0 1 .021.644.458.458 0 0 1-.647.02 6.428 6.428 0 0 1-1.54-7.71c.124-.22.404-.299.624-.175.102.052.18.14.218.248zM114.746 75.405a.525.525 0 0 1 .97-.094 7.468 7.468 0 0 1 .546 5.55.529.529 0 0 1-1.016-.294 6.428 6.428 0 0 0-.467-4.792.518.518 0 0 1-.033-.37z"/>
            <path fill="#F496BC" d="M110.051 83.083a.455.455 0 0 1-.033.844 6.59 6.59 0 0 1-4.895-.18.457.457 0 0 1 .373-.834c1.332.59 2.84.646 4.213.154a.458.458 0 0 1 .342.016zM119.286 93.2a.458.458 0 0 1 .731-.428 6.53 6.53 0 0 1 2.504 4.189.458.458 0 0 1-.903.145 5.639 5.639 0 0 0-2.157-3.607.455.455 0 0 1-.175-.298zM135.105 84.352c.106-.081.213-.17.203-.186 1.165-1.487 1.462-3.794.59-5.986-.78-1.961-1.77-3.087-3.424-3.563.384-1.514-.608-3.49-2.3-4.327-1.195-.59-2.372-.88-3.456-.714 1.6.26 4.74 1.211 4.546 4.002-.155 2.238-1.23 2.224-1.23 2.224a7.302 7.302 0 0 1 4.64 2.469c2.104 2.344.927 5.524-.241 6.342.24-.037.47-.126.672-.261zM129.432 101.33c2.21-1.265 2.919-3.88 2.453-6.242 0 0 .301 4.324-2.179 5.287-2.48.962-5.766-.265-5.766-.265s-.115 3.326-3.33 4.58l1.032-.307a4.374 4.374 0 0 0 2.411-2.79l.099-.029a5.811 5.811 0 0 0 5.28-.234zM118.631 67.606a4.374 4.374 0 0 0-3.9-1.297c-1.656.286-2.794 1.769-3.285 3.25-1.649-.478-3.86-1.064-5.579.176a6.083 6.083 0 0 0-2.556 4.992l.028.442s.644-3.673 3.239-5.036c1.927-1.012 5.785 1.095 5.785 1.095s-.01-3.747 2.73-4.523a3.736 3.736 0 0 1 3.538.9zM98.987 90.972c.142-2.027 1.642-4.303 1.642-4.303-.773-.857-.77-3.417-.621-4.406.205-.885.512-1.743.915-2.557-.961.604-1.606 1.186-1.949 2.357-.468 1.596.04 2.871 1.032 4.06a5.762 5.762 0 0 0-.26 7.658 4.25 4.25 0 0 1-.759-2.809zM111.484 99.36c-.252.26-2.304 2.253-4.662 1.304a3.915 3.915 0 0 1-2.605-3.284l-.912.19a4.416 4.416 0 0 0 8.189 1.792l-.01-.003z"/>
            <path fill="#A9A8A8" d="M96.254 119.815l1 5.376 18.856 5.078 3.714-4.11z"/>
            <path fill="#9B9B9B" d="M114.031 129.708l2.063.553 3.583-3.922-.415-.33-20.708-5.574-2.247-.409.35 1.89c.678.374 2.657 1.197 8.425 2.808 8.734 2.438 11.325 2.585 10.016 3.957-.456.465-.797.797-1.067 1.027z"/>
            <path fill="#BCBCBC" d="M103.087 105.125l17.478 4.706a4.88 4.88 0 0 1 3.443 5.98l-1.775 6.592a4.88 4.88 0 0 1-5.98 3.443l-17.478-4.706a4.88 4.88 0 0 1-3.443-5.98l1.775-6.592a4.88 4.88 0 0 1 5.98-3.443z"/>
            <path fill="#B0B0B0" d="M124.824 112.836a1.762 1.762 0 0 0-1.246-2.158l-23.582-6.395a1.762 1.762 0 0 0-1.392.21c.774.573 7.739 2.439 15.68 4.68 7.94 2.24 9.048 1.975 9.787 2.812 0 0-.625 3.514-1.237 3.51-.612-.003-23.297-7.089-23.706-6.435-.408.653-.463 2.163.247 2.415.71.252 21.84 5.914 22.523 6.656.614.664.012 3.046-1.224 3.017-1.015-.024-19.326-5.488-20.142-5.397-.817.092-.311 1.964.195 2.417.506.453 16.845 4.305 17.206 5.734.245.967-.328 1.54-.782 2.17l2.043.547a1.762 1.762 0 0 0 2.152-1.226l3.478-12.557z"/>
        </g>
    </g>
</svg>
