<svg xmlns="http://www.w3.org/2000/svg" xmlns:xlink="http://www.w3.org/1999/xlink" width="138" height="139" viewBox="0 0 138 139">
    <defs>
        <rect id="b" width="54.821" height="77.363" y="5.221" rx="1.078"/>
        <filter id="a" width="107.3%" height="105.2%" x="-3.6%" y="-1.3%" filterUnits="objectBoundingBox">
            <feOffset dy="1" in="SourceAlpha" result="shadowOffsetOuter1"/>
            <feGaussianBlur in="shadowOffsetOuter1" result="shadowBlurOuter1" stdDeviation=".5"/>
            <feColorMatrix in="shadowBlurOuter1" values="0 0 0 0 0 0 0 0 0 0 0 0 0 0 0 0 0 0 0.1 0"/>
        </filter>
        <linearGradient id="c" x1="0%" x2="196.339%" y1="50%" y2="135.677%">
            <stop offset="0%" stop-color="#A5AFBD"/>
            <stop offset="100%" stop-color="#50616E"/>
        </linearGradient>
        <linearGradient id="d" x1="0%" x2="196.339%" y1="50%" y2="53.514%">
            <stop offset="0%" stop-color="#A5AFBD"/>
            <stop offset="100%" stop-color="#50616E"/>
        </linearGradient>
        <linearGradient id="e" x1="0%" x2="196.339%" y1="50%" y2="53.857%">
            <stop offset="0%" stop-color="#A5AFBD"/>
            <stop offset="100%" stop-color="#50616E"/>
        </linearGradient>
        <linearGradient id="f" x1="0%" x2="196.339%" y1="50%" y2="51.471%">
            <stop offset="0%" stop-color="#A5AFBD"/>
            <stop offset="100%" stop-color="#50616E"/>
        </linearGradient>
    </defs>
    <g fill="none" fill-rule="evenodd" transform="translate(1)">
        <path fill="#A89CB7" d="M28.209 4.799l2.26-3.11a.56.56 0 0 1 .625-.204l3.657 1.188a.56.56 0 0 1 .387.532V7.05a.56.56 0 0 1-.387.532l-3.657 1.189a.56.56 0 0 1-.625-.204l-2.26-3.11a.56.56 0 0 1 0-.658z"/>
        <path fill="#F2C637" d="M99.526 95.782l2.42 2.988a.56.56 0 0 1 .034.657l-2.094 3.225a.56.56 0 0 1-.614.235l-3.714-.995a.56.56 0 0 1-.414-.51l-.201-3.84a.56.56 0 0 1 .358-.552l3.59-1.378a.56.56 0 0 1 .635.17z"/>
        <g transform="rotate(-15 131.484 -109.41)">
            <use fill="#000" filter="url(#a)" xlink:href="#b"/>
            <use fill="#F7F5F7" xlink:href="#b"/>
            <path fill="url(#c)" fill-opacity=".5" d="M3.313 11.877l29.151-7.811a.539.539 0 0 1 .66.38l.973 3.63a.539.539 0 0 1-.381.66L4.564 16.547a.539.539 0 0 1-.66-.381l-.972-3.63a.539.539 0 0 1 .38-.66z" transform="rotate(15 18.514 10.306)"/>
            <rect width="29.416" height="2.418" x="2.885" y="29.647" fill="url(#d)" fill-opacity=".5" rx=".269"/>
            <rect width="28.079" height="2.418" x="2.885" y="34.482" fill="url(#e)" fill-opacity=".5" rx=".269"/>
            <rect width="45.461" height="2.418" x="2.885" y="43.903" fill="url(#f)" fill-opacity=".5" rx=".269"/>
            <rect width="29.416" height="2.418" x="2.885" y="48.738" fill="url(#d)" fill-opacity=".5" rx=".269"/>
            <rect width="28.079" height="2.418" x="2.885" y="53.573" fill="url(#e)" fill-opacity=".5" rx=".269"/>
            <rect width="45.461" height="2.418" x="2.885" y="63.243" fill="url(#f)" fill-opacity=".5" rx=".269"/>
            <rect width="29.416" height="2.418" x="2.885" y="68.079" fill="url(#d)" fill-opacity=".5" rx=".269"/>
            <rect width="28.079" height="2.418" x="2.885" y="72.914" fill="url(#e)" fill-opacity=".5" rx=".269"/>
        </g>
        <path stroke="#1DA99B" stroke-linecap="round" stroke-width="1.193" d="M112.903 9.052l-4.097-.328a1.193 1.193 0 0 0-1.285 1.285l.216 2.701a1.193 1.193 0 0 1-1.285 1.285l-2.7-.216a1.193 1.193 0 0 0-1.285 1.285l.216 2.7a1.193 1.193 0 0 1-1.285 1.285l-2.7-.216a1.193 1.193 0 0 0-1.285 1.285l.327 4.097"/>
        <path stroke="#2CCC96" stroke-linecap="round" stroke-width="1.193" d="M21.235 45.824l-1.765-3.712a1.193 1.193 0 0 0-1.755-.47l-2.231 1.537a1.193 1.193 0 0 1-1.755-.47l-1.164-2.447a1.193 1.193 0 0 0-1.755-.47l-2.23 1.537a1.193 1.193 0 0 1-1.756-.47l-1.163-2.447a1.193 1.193 0 0 0-1.755-.47L.522 40.273"/>
        <path stroke="#FF8256" stroke-linecap="round" stroke-width="1.193" d="M43.445 103.218l-4.098-.328a1.193 1.193 0 0 0-1.285 1.285l.217 2.7a1.193 1.193 0 0 1-1.285 1.285l-2.701-.216a1.193 1.193 0 0 0-1.285 1.285l.216 2.7a1.193 1.193 0 0 1-1.285 1.286l-2.7-.216a1.193 1.193 0 0 0-1.285 1.284l.328 4.098"/>
        <path stroke="#76608A" stroke-linecap="round" stroke-width="1.193" d="M135.226 117.681l.328-4.097a1.193 1.193 0 0 0-1.285-1.285l-2.7.216a1.193 1.193 0 0 1-1.285-1.284l.216-2.701a1.193 1.193 0 0 0-1.285-1.285l-2.701.216a1.193 1.193 0 0 1-1.285-1.285l.216-2.7a1.193 1.193 0 0 0-1.284-1.285l-4.098.328"/>
        <circle cx="82.162" cy="135.188" r="3.496" fill="#EF6A6E"/>
        <circle cx="104.887" cy="80.647" r="3.496" fill="#FF8256"/>
        <circle cx="61.184" cy="22.726" r="3.496" fill="#EF6A6E"/>
        <rect width="5.594" height="5.594" x="78.666" y="1.165" fill="#F2C637" rx=".758" transform="rotate(-45 81.463 3.962)"/>
        <rect width="5.594" height="5.594" x="40.207" y="86.008" fill="#2CCC96" rx=".758" transform="rotate(-45 43.004 88.805)"/>
        <rect width="5.594" height="5.594" x="112.463" y="53.026" fill="#23679B" rx=".758"/>
        <rect width="5.594" height="5.594" x="14.568" y="25.639" fill="#EF6A6E" rx=".758" transform="rotate(-75 17.365 28.436)"/>
        <path fill="#5699FF" d="M9.523 68.24l5.517 3.643a.19.19 0 0 1-.01.322l-5.12 2.957a.19.19 0 0 1-.284-.153l-.397-6.6a.19.19 0 0 1 .294-.169z"/>
        <path fill="#F2C637" d="M119.838 70.767l6.272 2.091a.19.19 0 0 1 .074.314l-4.181 4.181a.19.19 0 0 1-.314-.074l-2.09-6.272a.19.19 0 0 1 .239-.24z"/>
        <path fill="#A89CB7" d="M94.492 38.342l-.396 6.6a.19.19 0 0 1-.283.152l-5.122-2.957a.19.19 0 0 1-.01-.322l5.518-3.643a.19.19 0 0 1 .293.17z"/>
        <path fill="#85CC2C" d="M126.283 23.705l.601 3.798a.56.56 0 0 1-.298.586l-3.426 1.745a.56.56 0 0 1-.65-.102l-2.719-2.72a.56.56 0 0 1-.103-.649l1.746-3.426a.56.56 0 0 1 .586-.299l3.798.602a.56.56 0 0 1 .465.465z"/>
        <path fill="#5699FF" d="M47.254 115.017l3.824.402a.56.56 0 0 1 .489.44l.8 3.761a.56.56 0 0 1-.268.601l-3.33 1.923a.56.56 0 0 1-.654-.07l-2.858-2.572a.56.56 0 0 1-.137-.643l1.564-3.513a.56.56 0 0 1 .57-.329z"/>
    </g>
</svg>
