<svg xmlns="http://www.w3.org/2000/svg" viewBox="0 0 201.02 237.13"><defs><style>.cls-1{fill:#eef3f7}.cls-2{fill:#dce5ea}.cls-3{fill:#a5612f}.cls-4{fill:#0f1f43}.cls-5{fill:#fcdcc2}.cls-6{fill:#fde5d1}.cls-7{fill:#070707}.cls-8{fill:#ad6d35}.cls-9{fill:#ee6723}.cls-10{fill:#e65d25}.cls-11{fill:#f0efef}.cls-12{fill:#cc2027}</style></defs><title>person_bedsick</title><g id="Layer_2" data-name="Layer 2"><g id="Layer_1-2" data-name="Layer 1"><path d="M9.28,33.55S-.57,30.62,0,35.93s5.07,5.19,6.57,8.74S21,96.41,18.53,104.56c-2.69,9,1.19,11.7,6,8.15S140,75.15,148.38,76.21s10.42-2.32,6.27-5.67c-4.78-3.86-17.91-58.71-16.42-63s-1.79-11.64-8.66-4.78C123.65,8.73,38.83,28.58,9.28,33.55Z" class="cls-1"/><path d="M148.38,76.21c8.36,1.06,10.42-2.32,6.27-5.67-4.78-3.86-17.91-58.71-16.42-63a7.06,7.06,0,0,0-.79-6.08,9.59,9.59,0,0,1-2.19,4.29c-2.39,2.39,16.72,54.33,3.28,62.09S130.77,37.13,107.78,24c-17.33-9.9-59.7-5.67-72.24,20.6S32.61,86.2,33.16,97.42c.29,5.79-5.45,11.95-12.54,12.24-1.4.06-2.21-1.16-2.82-1.85-.9,6.34,2.56,8,6.7,4.9C29.28,109.17,140,75.15,148.38,76.21Z" class="cls-2"/><path d="M94,111s.31,15.7-8.54,20.92-16.4-.37-17.87,1.55,2.08,4.77,2.08,4.77L66.27,138c-3.42-.25-2.31-5.77-4.82-6.23s-1,6-1,6-6.18-5.92-3-10.86S55.55,114.76,55,116.47a8.54,8.54,0,0,1-2.15,3.13c.78-2.81-3.44-4.45-9.74-10.87s-1.79-15.88-3.73-16-2.47,5.84-2.47,5.84-2.54-6.77.63-9.61.19-7.4.19-7.4c-1.47,1.92-5.58.78-5.58.78s7.62-2.31,4.49-11.57,1.47-22.43,4-26.16,5.54-7.08,3.59-9.25-3.41,1.85-3.41,1.85c-2.4-2.07.3-6.91,4.29-6.26s9.79-1.24,9.79-1.24C53.38,29.57,53,23.88,53,23.88s4.36,6.34,8.9,3.18,13.76-2.69,13.76-2.69,16.65-6.94,25.6.1,12.81,2,12.81,2-1.15,4.84-3.65,5.88c0,0,8.12,5.41,9.55,17.41s10.81,13,9.12,17.51c0,0-1.93-3.71-4.74-.72-3.29,3.51,8.53-.63,8,5a6.16,6.16,0,0,1-1.79,4.07s1.92-5.47-1.88-4.13,3,7.06,2,14.59-5.84,8.22-4.8,10.71c0,0-3.1-1.56-2.21-3.59s-3.75,5.44.86,7.56,7.2,6.1,5.05,10.25,4.06,7.26,4.06,7.26-3.59,2.21-5.2,1.22S101.27,130.71,94,111Z" class="cls-3"/><path d="M95.07,103a76.79,76.79,0,0,0-16,4.74S63,116,57.39,122A263.09,263.09,0,0,0,68.22,154.6c11.44,3.07,23.59,2.25,35.93-.64,11.63-2.72,20.22-8.26,28.82-15.42-1.6-14.37-3.07-29.63-7.11-34.42C125.87,104.13,104.22,101.3,95.07,103Z" class="cls-4"/><polygon points="99.36 102.66 108.9 111.13 110.29 137.31 90.02 143.19 80.17 114.27 82.94 106.34 99.36 102.66" class="cls-5"/><path d="M79.87,96.43l2.88,12s12.85,12.81,17.34-3.28L94.94,86.36Z" class="cls-5"/><path id="Face" d="M109.6,51.57c6.94,18.66,3.69,40.5-15,47.43S57.65,93.89,51,75.57c-7.05-19.34-2-36.9,16.66-43.84S102.66,32.91,109.6,51.57Z" class="cls-6"/><ellipse id="Eye_R" cx="96.94" cy="68.13" class="cls-7" data-name="Eye R" rx="3.3" ry="4.31" transform="matrix(0.98, -0.19, 0.19, 0.98, -11.27, 19.85)"/><ellipse id="Eye_L" cx="71.52" cy="73.59" class="cls-7" data-name="Eye L" rx="3.3" ry="4.31" transform="translate(-12.78 15.08) rotate(-11.05)"/><path d="M81.69,42.29s1.09,6.6-1.37,11.74S68.55,62.26,66.66,65.9,68.22,70,68.22,70s-4.12.61-4.72-2S59,86,51.33,88.21s-8.61-1.64-8.61-1.64,7.41,2.38,7.69-2.26-9.74-26-1.25-38.53c0,0-4.07-1.79-1.65-5.1,0,0,1.08,4.72,5.5-.86A31.11,31.11,0,0,1,78.07,28.24s8.53-4,16.47-1.29,10.26-1,10.26-1-1.48,5.37-4.52,6.08c0,0,4,1.36,5-.25,0,0-.69,2.9-2,3.21,0,0,8.55,5.31,10,15.47A115.11,115.11,0,0,1,114,71.26S84.5,56.25,81.69,42.29Z" class="cls-8"/><path d="M31.07,146.68s14.74,77.54,21.85,85.1,10.23,4.89,10.23,4.89L201,235.34s-22.41-116.65-32.64-127.76C168.38,107.57,63.54,108,31.07,146.68Z" class="cls-9"/><path d="M168.38,107.57s-7.45,0-19,.8L37.46,140.29a54.23,54.23,0,0,0-6.39,6.39s.6,3.17,1.62,8.29c19.66-1.13,78.42-7.67,105.84-19.63,28.06-12.24,33.13,10.75,32.83,45.67s.6,25.07.6,25.07l22.07-5.2C186.58,165.53,175,114.72,168.38,107.57Z" class="cls-10"/><path d="M19.13,121.3c.08-1.74,86.42-37.23,140.49-35.76a6,6,0,0,1,5.31,3.55c1.88,4.18,5,11.48,7,17.53a6,6,0,0,1-4.61,7.83c-23.64,4.45-106.67,20.82-134.42,36.08a6,6,0,0,1-8.61-3.24C21.88,140.41,18.74,129.81,19.13,121.3Z" class="cls-1"/><rect width="28.46" height="2.39" x="91.08" y="79.8" class="cls-11" transform="translate(-22.16 43.57) rotate(-21.2)"/><circle cx="120.11" cy="75.2" r="2.85" class="cls-11"/><circle cx="120.15" cy="75.16" r="1.37" class="cls-12"/><rect width="29.52" height=".74" x="91.13" y="80.33" class="cls-12" transform="translate(-22.02 43.75) rotate(-21.2)"/><path d="M32.94,150.53c27.75-15.25,110.79-31.62,134.42-36.08a6,6,0,0,0,4.61-7.83c-2-6.05-5.16-13.35-7-17.53a6,6,0,0,0-5.31-3.55q-2.23-.06-4.53,0c3.06,1,7.39,2.92,7.62,6.84.3,5.07,9.85,15.52-8.66,19.4S32.86,132.95,26.59,147.57l-.84,2A6.05,6.05,0,0,0,32.94,150.53Z" class="cls-2"/></g></g></svg>