<svg xmlns="http://www.w3.org/2000/svg" width="109" height="120" viewBox="0 0 109 120">
    <defs>
        <linearGradient id="a" x1="3.842%" x2="111.914%" y1="11.674%" y2="83.626%">
            <stop offset="0%" stop-color="#23679B"/>
            <stop offset="100%" stop-color="#5699FF"/>
        </linearGradient>
        <linearGradient id="b" x1="121.845%" x2="-19.964%" y1="39.436%" y2="39.436%">
            <stop offset="0%" stop-color="#FFED1C"/>
            <stop offset="100%" stop-color="#F2C637"/>
        </linearGradient>
    </defs>
    <g fill="none" fill-rule="nonzero">
        <path fill="#FF8256" d="M81.431 67.789l27.524 30.465-21.084.712-3.969 20.927-26.339-35.456z"/>
        <path fill="#F15A29" d="M77.971 77.636l20.246 21.24-10.419.376-1.89 9.965-17.25-26.86z"/>
        <path fill="#FF8256" d="M23.896 66.897L0 100.301l21.029-1.7 6.316 20.345 22.147-38.238z"/>
        <path fill="#F15A29" d="M28.346 76.004L10.632 99.42l10.397-.82 3.007 9.69 14.097-28.66z"/>
        <path fill="url(#a)" d="M58.826 7.189c2.606 5.43 8.895 7.987 14.534 5.91 9.894-3.606 19.128 6.527 14.399 15.83-2.718 5.342-.804 11.883 4.36 14.905 9.005 5.355 6.708 18.818-3.617 20.977-5.882 1.174-9.864 6.702-9.128 12.673 1.353 10.284-10.777 16.912-18.893 10.323a11.711 11.711 0 0 0-15.73.903c-7.316 7.47-20.123 2.243-19.944-8.103.056-6.011-4.52-11.05-10.492-11.55C3.845 68.085 0 54.952 8.351 48.627c4.786-3.592 5.943-10.307 2.638-15.303-5.746-8.652 2.275-19.828 12.488-17.372 5.85 1.435 11.827-1.833 13.795-7.542 3.31-9.84 17.144-10.654 21.554-1.222z"/>
        <ellipse cx="50.203" cy="47.88" fill="url(#b)" rx="31.493" ry="31.592" transform="rotate(-3.26 50.203 47.88)"/>
    </g>
</svg>
