<svg xmlns="http://www.w3.org/2000/svg" viewBox="0 0 215.29 202.19"><defs><style>.cls-1{fill:#ea3a26;}.cls-2{fill:#d8eff2;}.cls-3{fill:#ebf7fe;}.cls-4{fill:#fbd70f;}.cls-5{fill:#323333;}.cls-6{fill:#3e4141;}.cls-7{fill:#fcb01d;}.cls-8{fill:#f1c418;}.cls-9{fill:#f3f4f4;}.cls-10{fill:#f9fbfc;}.cls-11{fill:#f04c2b;}.cls-12{fill:#ef5434;}</style></defs><title>rocket</title><g id="Layer_2" data-name="Layer 2"><g id="Layer_1-2" data-name="Layer 1"><path class="cls-1" d="M161.93,121.92s-6.53,53.53-50.4,79.78a4.54,4.54,0,0,1-7-4.82c3.13-13.38,6.23-36.2-7.34-41.53,9.9-2.76,35.67-11.46,64.7-33.44Z" transform="translate(-0.25 -0.25)"/><path class="cls-2" d="M90.27,143.3a69.59,69.59,0,0,0-3.08-8.53,141.63,141.63,0,0,0,16.65-13q2.86-2.59,5.37-5.11a79.49,79.49,0,0,0,38.93-2.7C201.73,96.24,215.27,1.82,215.36,1.19h0c2,45.38-13.33,86.57-41.35,110.89q-6.11,5.3-12.1,9.82c-29,22-54.79,30.68-64.7,33.44-2.78.78-4.31,1.08-4.31,1.08A75.6,75.6,0,0,0,90.27,143.3Z" transform="translate(-0.25 -0.25)"/><path class="cls-3" d="M133.95,74.19c-.29,0-31,3.72-55.82,28.06q-2.23,2.19-4.25,4.28c-9.79-3-18.3-4.67-25.6-1.57h-.05s.8-2.43,2.67-6.67c4.93-11.16,17.29-34.85,42-59.52q4.65-4.64,9.9-9.31c41.85-37.07,112-28.34,112.54-28.27-.09.63-13.63,95-67.22,112.71a79.49,79.49,0,0,1-38.93,2.7C132.56,93.15,133.95,74.19,133.95,74.19Zm55.75-16.1c12.24-10.62,15-27.46,6.21-37.61q-.35-.41-.72-.79c-9-9.33-25.47-8.69-37.39,1.65-9.38,8.14-13.2,19.93-10.51,29.57a20.67,20.67,0,0,0,4.3,8C160.4,69.09,177.46,68.7,189.7,58.08Z" transform="translate(-0.25 -0.25)"/><path class="cls-4" d="M47.74,190.3c-11.23,10.45-20.8,5.15-20.95,5.07.16,0,9-.18,8.27-7.18s-13,3.39-19.66-3.92-12,.93-12,.93c-9.17-16,4.38-27.58,2.94-29.65s-5.4-.38-5.4-.38c8.16-17.39,27.85-19.08,27.85-19.08l6.57,7.57s-15.06,1.18-18.52,9.07c0,0,4.29-3.72,4.37,1.81s-2.38,5.92-2.19,13.79-4.28,7.56-4.28,7.56,9.22,8.61,14.41,5.32S42,175.2,44,177.31s-2.7,3.74-2.7,3.74,8.81,2.9,16.77-11.3l1.59,1.83S59.06,179.78,47.74,190.3Z" transform="translate(-0.25 -0.25)"/><path class="cls-5" d="M90.27,143.3a46.19,46.19,0,0,1-16.73,24.52c1.15-2.1,8.66-16.41,7.4-29.21q3-1.71,6.25-3.84A69.59,69.59,0,0,1,90.27,143.3Z" transform="translate(-0.25 -0.25)"/><path class="cls-6" d="M80.94,138.61c1.25,12.8-6.25,27.11-7.4,29.21A43.51,43.51,0,0,1,62,174.27l-2.34-2.69-1.59-1.83L35.41,143.67l-6.57-7.57L25,131.69c6.41-11.07,16.42-17.07,23.81-20.17h0c.26-.07,6.54-1.74,16.2,4.92C51.73,132.71,49.52,143,51.73,145.55,53.71,147.82,64.65,147.84,80.94,138.61Z" transform="translate(-0.25 -0.25)"/><path class="cls-7" d="M58.06,169.75c-8,14.19-16.77,11.3-16.77,11.3s4.7-1.63,2.7-3.74-9.59.63-14.78,3.92-14.41-5.32-14.41-5.32,4.47.32,4.28-7.56,2.27-8.26,2.19-13.79-4.37-1.81-4.37-1.81c3.46-7.9,18.52-9.07,18.52-9.07Z" transform="translate(-0.25 -0.25)"/><path class="cls-8" d="M147.29,50.9c0-.17-.56-4,11.39,3.87l.17.11c6.59,6.37,18.25,5.78,26.71-1.57,7.72-6.7,10.25-16.81,6.56-24.17-.24-7.11,3.06-9.46,3.06-9.46q.37.38.72.79c8.81,10.15,6,27-6.21,37.61s-29.3,11-38.11.86a20.67,20.67,0,0,1-4.3-8Z" transform="translate(-0.25 -0.25)"/><path class="cls-1" d="M103.85,121.72a141.63,141.63,0,0,1-16.65,13,46.92,46.92,0,0,0-7.31-11.88,43.45,43.45,0,0,0-6.68-6.16c2.64-2.73,5.35-5.33,8.08-7.8,8.44,2.81,17.74,6,27.93,7.68Q106.7,119.13,103.85,121.72Z" transform="translate(-0.25 -0.25)"/><path class="cls-1" d="M87.19,134.77q-3.24,2.14-6.25,3.84a20.88,20.88,0,0,0-4.75-11.82,68.62,68.62,0,0,0-6.33-6.52q1.64-1.8,3.33-3.54a43.45,43.45,0,0,1,6.68,6.16A46.92,46.92,0,0,1,87.19,134.77Z" transform="translate(-0.25 -0.25)"/><path class="cls-9" d="M192.13,29.15c3.68,7.36,1.16,17.47-6.56,24.17-8.47,7.35-20.13,7.93-26.71,1.57,12.24,7.73,33.51-18.65,33.27-25.73Z" transform="translate(-0.25 -0.25)"/><path class="cls-1" d="M80.94,138.61c-16.29,9.23-27.24,9.21-29.21,6.94a126.7,126.7,0,0,1,18.14-25.28,68.62,68.62,0,0,1,6.33,6.52A20.88,20.88,0,0,1,80.94,138.61Z" transform="translate(-0.25 -0.25)"/><path class="cls-10" d="M192.13,29.16c.24,7.08-21,33.46-33.27,25.73q-.46-.45-.89-.94c-6.38-7.35-4.37-19.55,4.5-27.25s21.23-8,27.61-.62a14.84,14.84,0,0,1,2.06,3.08Z" transform="translate(-0.25 -0.25)"/><path class="cls-1" d="M133.95,74.19s-1.39,19-24.73,42.42c-10.19-1.7-19.49-4.87-27.93-7.68A218.65,218.65,0,0,1,133.95,74.19Z" transform="translate(-0.25 -0.25)"/><path class="cls-4" d="M158.85,54.89l-.17-.11c-11.94-7.91-11.42-4-11.39-3.87h0c-2.69-9.63,1.13-21.42,10.51-29.57,11.91-10.34,28.39-11,37.39-1.65,0,0-3.3,2.35-3.06,9.46a14.84,14.84,0,0,0-2.06-3.08c-6.38-7.35-18.74-7.07-27.61.62S151.58,46.59,158,53.94Q158.39,54.44,158.85,54.89Z" transform="translate(-0.25 -0.25)"/><path class="cls-11" d="M133.95,74.19a218.65,218.65,0,0,0-52.67,34.74c-2.54-.85-5-1.66-7.4-2.4q2-2.09,4.25-4.28C102.92,77.91,133.66,74.22,133.95,74.19Z" transform="translate(-0.25 -0.25)"/><path class="cls-12" d="M69.87,120.27a126.7,126.7,0,0,0-18.14,25.28c-2.21-2.55,0-12.84,13.31-29.11A48.52,48.52,0,0,1,69.87,120.27Z" transform="translate(-0.25 -0.25)"/><path class="cls-12" d="M73.2,116.73q-1.69,1.74-3.33,3.54A48.52,48.52,0,0,0,65,116.44q1.32-1.61,2.78-3.3A58.6,58.6,0,0,1,73.2,116.73Z" transform="translate(-0.25 -0.25)"/><path class="cls-12" d="M81.28,108.93c-2.74,2.47-5.44,5.07-8.08,7.8a58.6,58.6,0,0,0-5.37-3.58q2.76-3.17,6.06-6.61C76.27,107.26,78.74,108.08,81.28,108.93Z" transform="translate(-0.25 -0.25)"/><path class="cls-5" d="M67.82,113.14q-1.47,1.69-2.78,3.3c-9.66-6.66-15.94-5-16.2-4.92a49.14,49.14,0,0,1,9.55-3l0-.05A76.22,76.22,0,0,1,67.82,113.14Z" transform="translate(-0.25 -0.25)"/><path class="cls-2" d="M73.88,106.53q-3.31,3.44-6.06,6.61a76.22,76.22,0,0,0-9.41-4.69A76.93,76.93,0,0,0,48.28,105C55.58,101.86,64.09,103.51,73.88,106.53Z" transform="translate(-0.25 -0.25)"/><path class="cls-11" d="M50.9,98.28l0,0C47.5,84,24.43,83.94,10.73,85.2a4.54,4.54,0,0,1-3.81-7.57c32.06-39.82,86-38.89,86-38.89l0,0C68.18,63.43,55.82,87.12,50.9,98.28Z" transform="translate(-0.25 -0.25)"/></g></g></svg>