<?xml version="1.0" encoding="UTF-8"?>
<svg width="171px" height="171px" viewBox="0 0 171 171" version="1.1" xmlns="http://www.w3.org/2000/svg" xmlns:xlink="http://www.w3.org/1999/xlink">
    <!-- Generator: Sketch 52.2 (67145) - http://www.bohemiancoding.com/sketch -->
    <title>Group 28</title>
    <desc>Created with Sketch.</desc>
    <g id="Page-1" stroke="none" stroke-width="1" fill="none" fill-rule="evenodd">
        <g id="Sign-up-page" transform="translate(-344.000000, -636.000000)">
            <g id="Group-28" transform="translate(344.000000, 636.000000)">
                <path d="M170.6519,85.6074 C170.6519,132.5814 132.5729,170.6604 85.5999,170.6604 C38.6269,170.6604 0.5479,132.5814 0.5479,85.6074 C0.5479,38.6344 38.6269,0.5554 85.5999,0.5554 C132.5729,0.5554 170.6519,38.6344 170.6519,85.6074" id="Fill-2" fill="#EFEFEF"></path>
                <path d="M90.4448,24.6084 C90.4448,24.6084 91.3958,12.4134 76.4218,12.7614 C61.4468,13.1114 51.8218,23.4394 49.0108,31.5474 C45.5018,41.6704 50.8548,59.3754 61.4068,52.9684 C71.9598,46.5634 90.0478,36.8434 90.0478,36.8434 L90.4448,24.6084 Z" id="Fill-4" fill="#9F5F2D"></path>
                <path d="M76.2739,108.1416 C76.2739,108.1416 38.5909,103.6186 45.5069,68.3036 C52.4219,32.9896 119.6139,55.8966 120.9279,62.0146 C122.2429,68.1316 120.3969,86.1626 117.0469,93.7416 C113.6969,101.3196 98.9239,109.0846 91.0359,109.7966 C83.1489,110.5086 76.2739,108.1416 76.2739,108.1416" id="Fill-6" fill="#9F5F2D"></path>
                <path d="M88.7402,114.4297 C78.1082,113.9097 69.6982,115.5527 69.6982,115.5527 C69.6982,115.5527 52.7012,120.7227 44.8462,125.9237 C44.8462,125.9237 42.2662,141.5927 45.4882,160.6147 C57.4382,167.0187 71.0922,170.6597 85.5992,170.6597 C99.2742,170.6597 112.1842,167.4137 123.6312,161.6797 C125.5962,145.2517 126.0222,130.1297 122.7622,123.7417 C122.7622,123.7417 99.3722,114.9497 88.7402,114.4297" id="Fill-8" fill="#101F43"></path>
                <polygon id="Fill-10" fill="#FDDDC2" points="93.6035 115.1943 102.0295 127.1213 96.7595 156.6593 72.6315 157.9273 69.1895 123.1313 74.3535 115.0153"></polygon>
                <path d="M84.3335,152.2021 C75.5915,151.9201 71.3615,130.3461 71.3615,130.3461 L71.9985,169.5641 C76.4285,170.2761 80.9685,170.6601 85.5995,170.6601 C88.3235,170.6601 91.0135,170.5181 93.6715,170.2681 L98.5755,133.4481 C93.1045,145.2031 88.7515,152.3441 84.3335,152.2021" id="Fill-12" fill="#F3F4F5"></path>
                <path d="M73.5098,103.1777 L73.5898,117.2897 C73.5898,117.2897 84.5658,134.9197 93.7728,118.1587 L92.9238,95.8737 L73.5098,103.1777 Z" id="Fill-14" fill="#FDDDC2"></path>
                <path d="M118.3271,60.9326 C121.1951,83.5386 111.8871,107.0256 89.2811,109.8926 C66.6761,112.7606 49.4051,94.5466 46.7351,72.3896 C43.9161,49.0036 54.1281,30.7416 76.7341,27.8726 C99.3401,25.0056 115.4591,38.3276 118.3271,60.9326" id="Fill-16" fill="#FDE6D1"></path>
                <path d="M103.6753,76.2285 C103.5753,78.9545 101.8043,81.1005 99.7203,81.0245 C97.6363,80.9475 96.0283,78.6755 96.1283,75.9505 C96.2293,73.2255 97.9993,71.0785 100.0833,71.1555 C102.1673,71.2315 103.7763,73.5025 103.6753,76.2285" id="Fill-18" fill="#060505"></path>
                <path d="M73.9248,75.6816 C73.8248,78.4066 72.0538,80.5536 69.9698,80.4766 C67.8858,80.4006 66.2778,78.1286 66.3778,75.4036 C66.4788,72.6776 68.2488,70.5316 70.3338,70.6076 C72.4178,70.6846 74.0258,72.9556 73.9248,75.6816" id="Fill-20" fill="#060505"></path>
                <path d="M73.1045,126.8682 C73.2375,121.6792 73.6825,112.0862 73.6825,112.0862 C73.6825,112.0862 64.3755,118.3492 54.9105,132.6962 L67.0365,145.4722 L57.8095,156.3052 C57.8095,156.3052 59.3855,161.0802 61.5015,167.1752 C66.6485,168.6932 71.9945,169.7462 77.4975,170.2652 C77.7775,158.9902 77.9465,149.7152 77.8075,147.7252 C77.4055,141.9692 72.9635,132.3702 73.1045,126.8682" id="Fill-22" fill="#1C2753"></path>
                <path d="M93.5376,113.2246 C93.5376,113.2246 94.8516,125.4106 94.6296,128.3966 C94.4076,131.3836 91.1726,143.9166 90.9866,146.7336 C90.9186,147.7566 90.2046,157.9976 89.3056,170.5666 C95.9456,170.2816 102.3826,169.2256 108.5436,167.5026 C109.9306,164.0936 110.8936,161.6846 111.1876,160.9456 L101.1106,146.5256 L112.5836,131.3936 L93.5376,113.2246 Z" id="Fill-24" fill="#1C2753"></path>
                <path d="M93.4409,44.3604 C93.4409,44.3604 90.0799,57.2564 73.4429,59.3354 C73.4429,59.3354 65.2499,61.4584 56.9869,66.0284 C48.7239,70.5994 51.1809,87.9414 51.7519,89.1434 C52.3219,90.3464 33.0169,74.2334 45.0439,49.7794 C57.0699,25.3264 83.0629,21.8794 92.8069,28.7474 C92.8069,28.7474 93.5199,26.5364 99.4399,28.1914 C112.2689,31.7794 124.2519,42.4644 123.0969,62.8764 C121.9419,83.2884 116.6069,86.8234 116.6069,86.8234 C116.6069,86.8234 120.2149,66.3664 113.3409,60.0814 C106.4669,53.7964 97.7509,52.5704 93.4409,44.3604" id="Fill-26" fill="#AC6C35"></path>
            </g>
        </g>
    </g>
</svg>