<svg xmlns="http://www.w3.org/2000/svg" width="87" height="160" viewBox="0 0 87 160">
    <defs>
        <linearGradient id="a" x1="16.904%" x2="91.223%" y1="0%" y2="103.131%">
            <stop offset="0%" stop-color="#F2C637"/>
            <stop offset="100%" stop-color="#FAA367"/>
        </linearGradient>
        <linearGradient id="b" x1="50%" x2="50%" y1="0%" y2="100%">
            <stop offset="0%" stop-color="#938ADF"/>
            <stop offset="100%" stop-color="#23679B"/>
        </linearGradient>
        <linearGradient id="c" x1="0%" x2="86.466%" y1="-15.367%" y2="104.176%">
            <stop offset="0%" stop-color="#F8D8A3"/>
            <stop offset="100%" stop-color="#F15A29"/>
        </linearGradient>
        <linearGradient id="d" x1="86.196%" x2="-23.149%" y1="15.505%" y2="95.057%">
            <stop offset="0%" stop-color="#D5C2B4"/>
            <stop offset="100%" stop-color="#F3EDE8"/>
        </linearGradient>
        <linearGradient id="e" x1="107.243%" x2="-22.782%" y1="51.565%" y2="47.727%">
            <stop offset="0%" stop-color="#D5C2B4"/>
            <stop offset="100%" stop-color="#F3EDE8"/>
        </linearGradient>
    </defs>
    <g fill="none" fill-rule="evenodd">
        <path fill="url(#a)" d="M43.572 36.223l11.329 22.658a.847.847 0 0 1-.758 1.225H31.486a.847.847 0 0 1-.757-1.225l11.329-22.658a.847.847 0 0 1 1.514 0z" opacity=".8"/>
        <rect width="25.397" height="25.397" x="55.513" y="20.317" fill="url(#b)" opacity=".8" rx="3.386" transform="rotate(-45 68.212 33.016)"/>
        <circle cx="15.302" cy="13.968" r="13.968" fill="url(#c)" opacity=".8"/>
        <path fill="#1DA99B" d="M13.916 61.829c-.415 1.552-5.142 2.826-6.389 1.614-1.116-1.084.155-5.826 1.663-6.207 1.687-.426 5.142 3.041 4.726 4.593zM17.872 71.958c-.804-1.392 1.637-5.635 3.376-5.66 1.556-.022 4.01 4.23 3.213 5.565-.891 1.494-5.786 1.486-6.59.095zM76.677 64.339c0 1.606-4.235 4.06-5.754 3.213-1.358-.759-1.358-5.668 0-6.426 1.52-.848 5.754 1.606 5.754 3.213zM60.2 73.65c.803-1.39 5.698-1.398 6.59.095.796 1.336-1.658 5.587-3.214 5.565-1.739-.025-4.18-4.268-3.376-5.66zM50.827 80.423c-.803 1.391-5.698 1.4-6.59-.094-.797-1.336 1.658-5.587 3.213-5.565 1.74.025 4.18 4.268 3.377 5.66zM34.803 83.81c-.803-1.392 1.637-5.635 3.376-5.66 1.556-.022 4.01 4.23 3.213 5.565-.89 1.494-5.786 1.486-6.59.095z"/>
        <path fill="url(#d)" d="M4.72 100.74c.01-7.027 12.992-7.027 38.947 0 25.945-7.242 38.924-7.242 38.937 0 .04 24.675-2.902 44.082-8.828 58.221A1.693 1.693 0 0 1 72.215 160H15.109c-.683 0-1.299-.41-1.562-1.04-5.92-14.139-8.862-33.545-8.828-58.22z"/>
        <rect width="5.079" height="74.497" x="13.185" y="25.397" fill="#1DA99B" rx="2.54"/>
        <rect width="5.079" height="42" x="40.275" y="57.894" fill="#1DA99B" rx="2.54"/>
        <rect width="5.079" height="54.18" x="65.672" y="45.714" fill="#1DA99B" rx="2.54"/>
        <path fill="url(#e)" d="M2.182 94.815H85.14a1.693 1.693 0 0 1 1.686 1.846l-1.085 11.947c-.08.872-.81 1.54-1.686 1.54H3.267a1.693 1.693 0 0 1-1.686-1.54L.496 96.661a1.693 1.693 0 0 1 1.686-1.846z"/>
    </g>
</svg>
