<svg xmlns="http://www.w3.org/2000/svg" xmlns:xlink="http://www.w3.org/1999/xlink" width="113" height="140" viewBox="0 0 113 140">
    <defs>
        <linearGradient id="c" x1="36.396%" x2="69.968%" y1="-4.44%" y2="100%">
            <stop offset="0%" stop-color="#979797"/>
            <stop offset="100%" stop-opacity=".5"/>
        </linearGradient>
        <rect id="b" width="72.8" height="115.2" x="20" y="9.6" rx="2.56"/>
        <filter id="a" width="111%" height="106.9%" x="-5.5%" y="-1.7%" filterUnits="objectBoundingBox">
            <feOffset dy="2" in="SourceAlpha" result="shadowOffsetOuter1"/>
            <feGaussianBlur in="shadowOffsetOuter1" result="shadowBlurOuter1" stdDeviation="1"/>
            <feColorMatrix in="shadowBlurOuter1" values="0 0 0 0 0 0 0 0 0 0 0 0 0 0 0 0 0 0 0.1 0"/>
        </filter>
        <rect id="e" width="72.8" height="115.2" x="9.6" y="14.4" rx="2.56"/>
        <filter id="d" width="111%" height="106.9%" x="-5.5%" y="-1.7%" filterUnits="objectBoundingBox">
            <feOffset dy="2" in="SourceAlpha" result="shadowOffsetOuter1"/>
            <feGaussianBlur in="shadowOffsetOuter1" result="shadowBlurOuter1" stdDeviation="1"/>
            <feColorMatrix in="shadowBlurOuter1" values="0 0 0 0 0 0 0 0 0 0 0 0 0 0 0 0 0 0 0.1 0"/>
        </filter>
        <rect id="g" width="72.8" height="115.2" y="21.6" rx="2.56"/>
        <filter id="f" width="111%" height="106.9%" x="-5.5%" y="-1.7%" filterUnits="objectBoundingBox">
            <feOffset dy="2" in="SourceAlpha" result="shadowOffsetOuter1"/>
            <feGaussianBlur in="shadowOffsetOuter1" result="shadowBlurOuter1" stdDeviation="1"/>
            <feColorMatrix in="shadowBlurOuter1" values="0 0 0 0 0 0 0 0 0 0 0 0 0 0 0 0 0 0 0.1 0"/>
        </filter>
        <linearGradient id="h" x1="12.825%" x2="89.855%" y1="29.779%" y2="70.554%">
            <stop offset="0%" stop-color="#EBEBEB"/>
            <stop offset="100%" stop-color="#F15A29"/>
        </linearGradient>
    </defs>
    <g fill="none" fill-rule="evenodd" transform="translate(2 -1)">
        <g opacity=".5" transform="rotate(20 56.4 67.2)">
            <use fill="#000" filter="url(#a)" xlink:href="#b"/>
            <use fill="#EEE" xlink:href="#b"/>
            <use fill="url(#c)" fill-opacity=".4" xlink:href="#b"/>
        </g>
        <g transform="rotate(10 46 72)">
            <use fill="#000" filter="url(#d)" xlink:href="#e"/>
            <use fill="#EEE" xlink:href="#e"/>
            <use fill="url(#c)" fill-opacity=".25" xlink:href="#e"/>
        </g>
        <g>
            <use fill="#000" filter="url(#f)" xlink:href="#g"/>
            <use fill="#EEE" xlink:href="#g"/>
        </g>
        <rect width="64.8" height="3.2" x="4" y="81.6" fill="#979797" fill-opacity=".5" rx=".64"/>
        <rect width="61.6" height="3.2" x="4" y="88" fill="#979797" fill-opacity=".5" rx=".64"/>
        <rect width="30.4" height="2.4" x="4" y="103.2" fill="#979797" fill-opacity=".25" rx=".64"/>
        <rect width="28.8" height="8" x="4" y="125.6" fill="#FF8256" fill-opacity=".25" rx="1.28"/>
        <text fill="#F15A29" font-family="HelveticaNeue-Medium, Helvetica Neue" font-size="5.12" font-weight="400" letter-spacing=".063">
            <tspan x="12.828" y="131.4">NEW</tspan>
        </text>
        <rect width="41.6" height="6.4" x="4" y="66.4" fill="#979797" fill-opacity=".5" rx="1.28"/>
        <path fill="url(#h)" fill-opacity=".5" d="M2.56 21.6h67.68a2.56 2.56 0 0 1 2.56 2.56V62.4H0V24.16a2.56 2.56 0 0 1 2.56-2.56z"/>
        <rect width="26.4" height="3.2" x="42.4" y="32.8" fill="#FFF" fill-opacity=".4" rx=".64"/>
        <rect width="24.8" height="3.2" x="42.4" y="39.2" fill="#FFF" fill-opacity=".4" rx=".64"/>
        <rect width="24" height="3.2" x="42.4" y="45.6" fill="#FFF" fill-opacity=".4" rx=".64"/>
        <rect width="26.6" height="5.8" x="4.3" y="107.5" stroke="#C1C1C1" opacity=".5" rx=".64"/>
        <rect width="41" height="5.8" x="4.3" y="115.7" stroke="#C1C1C1" opacity=".5" rx=".64"/>
        <path fill="#FFF" fill-opacity=".4" fill-rule="nonzero" d="M21.6 44c3.536 0 6.4-2.872 6.4-6.4 0-3.536-2.864-6.4-6.4-6.4a6.398 6.398 0 0 0-6.4 6.4c0 3.528 2.864 6.4 6.4 6.4zm0 3.2c-4.264 0-12.8 2.136-12.8 6.4v3.2h25.6v-3.2c0-4.264-8.536-6.4-12.8-6.4z"/>
        <path d="M2.4 24.8h38.4v38.4H2.4z"/>
    </g>
</svg>
