<?xml version="1.0" encoding="UTF-8"?>
<svg width="42px" height="34px" viewBox="0 0 42 34" version="1.1" xmlns="http://www.w3.org/2000/svg" xmlns:xlink="http://www.w3.org/1999/xlink">
    <!-- Generator: Sketch 52.2 (67145) - http://www.bohemiancoding.com/sketch -->
    <title>Group</title>
    <desc>Created with Sketch.</desc>
    <g id="Page-1" stroke="none" stroke-width="1" fill="none" fill-rule="evenodd">
        <g id="Sign-up-page" transform="translate(-529.000000, -639.000000)">
            <g id="Group-51" transform="translate(0.000000, 156.000000)">
                <g id="Group" transform="translate(529.000000, 483.000000)">
                    <path d="M1.5845,13.8232 C4.0805,5.8142 12.5955,1.3452 20.6045,3.8422 C28.6125,6.3382 33.0815,14.8522 30.5845,22.8612 C28.0895,30.8692 19.5745,35.3382 11.5655,32.8432 C3.5575,30.3462 -0.9115,21.8312 1.5845,13.8232" id="Fill-35" fill="#FFFFFF"></path>
                    <path d="M15.4185,26.7695 C14.4445,26.7715 13.5585,26.2075 13.1495,25.3235 L8.0035,14.2575 C7.4205,13.0085 7.9605,11.5245 9.2085,10.9415 C10.4575,10.3575 11.9425,10.8975 12.5255,12.1465 L16.2335,20.1195 L37.4655,0.6905 C38.4845,-0.2415 40.0665,-0.1705 40.9985,0.8485 C41.9305,1.8685 41.8595,3.4505 40.8405,4.3815 L17.1065,26.1215 C16.6445,26.5405 16.0425,26.7715 15.4185,26.7695" id="Fill-37" fill="#A8D37D"></path>
                </g>
            </g>
        </g>
    </g>
</svg>