<?xml version="1.0" encoding="utf-8"?>
<!-- Generator: Adobe Illustrator 21.0.2, SVG Export Plug-In . SVG Version: 6.00 Build 0)  -->
<svg version="1.1" xmlns="http://www.w3.org/2000/svg" xmlns:xlink="http://www.w3.org/1999/xlink" x="0px" y="0px"
	 viewBox="0 0 3000 3000" style="enable-background:new 0 0 3000 3000;" xml:space="preserve">
<style type="text/css">
	.st0{fill:#FFDB94;}
	.st1{fill:#F9D8C5;}
	.st2{fill:#F9F9F9;}
	.st3{fill:#999999;}
	.st4{fill:#FFFFFF;}
	.st5{fill:#D8D8D8;}
	.st6{fill:#FFE5D4;}
	.st7{fill:#402363;}
	.st8{fill:#49276B;}
	.st9{fill:#050303;}
	.st10{fill:#7F431B;}
	.st11{opacity:0.15;fill:#B2B2B2;}
	.st12{fill:#965623;}
	.st13{fill:#6FBC5E;}
</style>
<g id="Layer_1">
	<g id="Layer_5">
		<circle class="st0" cx="1500.8" cy="1502.4" r="1179.4"/>
	</g>
</g>
<g id="Layer_2">
	<path class="st1" d="M1932.3,1007.1c0,0,41.6-74.9,63.4-77.6s69,70.8,68.9,96.2c-0.1,25.4-11.6,112.4-27.6,136.6
		c-16.1,24.2-94.3,109.9-94.3,109.9l-64-30.2L1932.3,1007.1z"/>
	<g>
		<polygon class="st2" points="2453.4,381.5 1735.1,593.3 2044.6,1619 2752.9,1404.3 		"/>
		<polygon class="st3" points="1762.3,613.7 1794.1,723.6 2473.5,515.8 2438.4,407 		"/>
		<polygon class="st4" points="1977.7,590.1 2243.6,508.9 2255.3,543.9 1988.9,625.1 		"/>
		<polygon class="st3" points="1799.9,747.1 2063.7,665.8 2072.5,691.5 1806.8,776.1 		"/>
		<polygon class="st5" points="1811.4,787.4 2491.9,588.1 2518.3,670.6 1836.2,869 		"/>
		<polygon class="st3" points="1851.9,894.1 2117.2,818 2125.2,844.3 1858,920.5 		"/>
		<polygon class="st5" points="1861.8,932.3 2541.5,730.4 2583.2,866 1901.6,1066.1 		"/>
		<polygon class="st5" points="1905.5,1082.9 2585.2,881.1 2626.9,1016.7 1945.3,1216.8 		"/>
		<polygon class="st5" points="1948,1231.2 2627.7,1029.4 2669.4,1165 1987.8,1365.1 		"/>
		<polygon class="st3" points="1997.3,1383.1 2262.6,1307 2270.6,1333.3 2003.5,1409.5 		"/>
		<polygon class="st5" points="2007.3,1421.3 2682.6,1218.8 2734.9,1391.2 2057.4,1591.3 		"/>
	</g>
	<polygon class="st3" points="1762.3,613.7 1794.1,723.6 2473.5,515.8 2438.4,407 	"/>
	<polygon class="st4" points="1977.7,590.1 2243.6,508.9 2255.3,543.9 1988.9,625.1 	"/>
	<polygon class="st3" points="1799.9,747.1 2063.7,665.8 2072.5,691.5 1806.8,776.1 	"/>
	<polygon class="st5" points="1811.4,787.4 2491.9,588.1 2518.3,670.6 1836.2,869 	"/>
	<polygon class="st3" points="1851.9,894.1 2117.2,818 2125.2,844.3 1858,920.5 	"/>
	<polygon class="st5" points="1861.8,932.3 2541.5,730.4 2583.2,866 1901.6,1066.1 	"/>
	<polygon class="st5" points="1905.5,1082.9 2585.2,881.1 2626.9,1016.7 1945.3,1216.8 	"/>
	<polygon class="st5" points="1948,1231.2 2627.7,1029.4 2669.4,1165 1987.8,1365.1 	"/>
	<polygon class="st3" points="1997.3,1383.1 2262.6,1307 2270.6,1333.3 2003.5,1409.5 	"/>
	<polygon class="st5" points="2007.3,1421.3 2682.6,1218.8 2734.9,1391.2 2057.4,1591.3 	"/>
	<path class="st6" d="M1820.1,1242.8c0,0,7.7-133.2,5.5-152.2s30.6-64.5,47.5-85.7c16.8-21.2,88.2-35.1,113.7-49
		c25.5-13.9,32.9,23.3,13.4,35.4c-9.6,6-86.4,41.2-86.4,41.2s31.6,53.2,29.5,102.9c-2.1,49.7-37.5,131.9-37.5,131.9L1820.1,1242.8z"
		/>
	<path class="st7" d="M1215.5,1804.2c0,0,383-68.5,415.6-98.6c32.6-30.1,156.5-493.6,156.5-493.6l156.5,52.2
		c0,0-114.7,589.1-180,636.8c-49,35.8-406.2,212-406.2,212L1215.5,1804.2z"/>
	<path class="st8" d="M997.5,1825.6c0,0-194.2,32.4-217.5,47.2c-23.3,14.8-52.3,52.9-51.6,67.7c0.7,14.8,150.5,638,140.5,703.2
		c0,0,373.5,112.7,586.7-50.4c0,0,37.7-307.5,25.2-440.5s-19.6-284.8-37.2-297.4c-17.6-12.5-9.5-85.8-99.8-78.3
		c-90.3,7.5-175.6,25.1-175.6,25.1L997.5,1825.6z"/>
	<path class="st1" d="M974.6,1709.7l25.4,117.6c0,0,164.9,123.4,213.3-35.1l-37.6-193.2L974.6,1709.7z"/>
	<path id="Face_1_" class="st6" d="M1314,1241.4c53.4,214.3-27.3,457.9-241.6,511.3S692,1660,628.7,1453.2
		c-64.6-211.2,32.9-429.1,247.2-482.5C1090.2,917.3,1260.5,1027.1,1314,1241.4z"/>
	
		<ellipse id="Eye_R_1_" transform="matrix(0.9703 -0.2419 0.2419 0.9703 -298.316 318.4223)" class="st9" cx="1147.5" cy="1374" rx="36.6" ry="47.9"/>
	
		<ellipse id="Eye_L_1_" transform="matrix(0.9703 -0.2419 0.2419 0.9703 -326.1267 255.2294)" class="st9" cx="876.3" cy="1455.7" rx="36.6" ry="47.9"/>
	<path class="st10" d="M1198.2,1117.3c0,0,102.9,110.4,107.9,173.1s26.5,78,26.5,78s3-208.7-87-306.4
		C1155.6,964.3,1198.2,1117.3,1198.2,1117.3z"/>
	<path class="st11" d="M2453.4,381.5l-64.5,19c69.1,196.4,266,901.4-373.2,1123l28.8,95.6l708.3-214.7L2453.4,381.5z"/>
	<path id="Hair" class="st12" d="M548.4,1122.3c10-37.6,35.3-71.5,55.2-95.3c37.6-45.2,159.6-104.4,218.3-122.9
		c47.7-15.1,134.5-8.1,158.1-7.5c23,0.6,140.4,20.1,181,9.6c44.1-11.5,85.6-31,122.7-57.5c5.3-3.8,9.3-9.1,14.9-7.7
		c3.9,1.5,4.5,15.9,5,20.3c9.9,89.9-16.6,183.5-76.3,252.1c-58,66.7-144,125.2-232.2,124.4c-53.6-0.5-108.8-2.1-160.6-15.1
		c-9.2-1.1-55.2-17.6-117.9,35.1c-60.2,72.8-30.1,208.2-25.1,233.3c5.4,26.8,15.1,55.2,17.6,60.2c0.6,1.2,3.3,52.5-17.6,42.7
		c-2.6-1.2-107.9-190.7-128-263.4C533.5,1221.8,539.4,1156.3,548.4,1122.3z"/>
	<path class="st8" d="M847.7,1863.1c0,0-73.5-10.7-128.7,42c-46.6,44.5-171.9,427.4-209.8,555.7c50.2,58.5,121.2,74.3,185.5,117.2
		c42.2-107.8,209.9-565.2,209.9-580.9C904.6,1979.5,931.2,1898.8,847.7,1863.1z"/>
	<g id="Layer_3">
		<polygon class="st13" points="2342.9,1231.9 2444.5,1231.9 2444.5,1541.8 2632.7,1541.8 2632.7,1236.9 2734.4,1233.6 
			2541.1,988.7 		"/>
	</g>
</g>
</svg>
