<?xml version="1.0" encoding="UTF-8"?>
<svg width="390px" height="390px" viewBox="0 0 390 390" version="1.1" xmlns="http://www.w3.org/2000/svg" xmlns:xlink="http://www.w3.org/1999/xlink">
    <!-- Generator: Sketch 55.2 (78181) - https://sketchapp.com -->
    <title>Artboard Copy</title>
    <desc>Created with Sketch.</desc>
    <g id="Artboard-Copy" stroke="none" stroke-width="1" fill="none" fill-rule="evenodd">
        <path d="M375.651557,209.882619 C383.950487,207.585395 390.649623,213.178636 389.949713,222.067894 C389.949713,224.265238 389.449777,225.863307 388.849855,227.561255 C388.849855,228.160531 388.249932,228.659928 388.249932,229.259203 C358.353787,306.266144 283.063497,361 194.974856,361 C107.486139,361 32.1958481,306.166264 1.6997808,229.259203 C1.6997808,228.160531 1.09985816,227.661135 1.09985816,227.061859 C0.599922635,224.864514 0,223.266445 0,221.568497 C0,213.278515 7.19907162,207.785154 15.4980014,209.982498 C29.8961447,213.877791 44.7942234,216.574532 59.7922893,219.371153 L59.7922893,170.630054 L59.7922893,140.166868 C59.7922893,138.46892 59.7922893,125.184973 59.7922893,122.987628 C63.1918509,71.5497888 106.386281,30 158.979498,30 L231.570137,30 C282.563561,30 324.658133,68.1538926 330.157424,117.394387 C330.757346,120.690404 330.757346,136.171696 330.757346,140.066989 L330.757346,170.530175 L330.757346,219.271273 C345.755412,216.474653 360.653491,213.178636 375.651557,209.882619 Z" id="Combined-Shape-path" fill="#F15A29" fill-rule="nonzero"></path>
        <path d="M119.784553,283.393784 L273.164773,282.794508 L273.164773,238.547978 L210.572845,238.547978 L242.668706,206.986119 C262.666127,188.208811 270.965057,169.431503 270.965057,146.159626 C270.965057,103.511165 240.46899,73.6472541 197.27456,73.6472541 C154.08013,73.6472541 124.183986,105.209113 123.584063,151.153591 L177.877061,151.153591 C177.377126,147.258298 176.777203,145.060954 176.777203,142.863609 C176.777203,128.48099 185.076133,118.49306 197.27456,118.49306 C209.472987,118.49306 219.471697,130.079059 219.471697,144.461678 C219.471697,155.54828 215.672187,167.733555 207.873193,179.319553 C199.074328,193.202776 181.876546,215.276101 168.578261,230.257996 L119.784553,283.393784 Z" id="Combined-Shape-path" fill="#FFFFFF" fill-rule="nonzero"></path>
    </g>
</svg>