<?xml version="1.0" encoding="UTF-8"?>
<svg width="390px" height="390px" viewBox="0 0 390 390" version="1.1" xmlns="http://www.w3.org/2000/svg" xmlns:xlink="http://www.w3.org/1999/xlink">
    <!-- Generator: Sketch 55.2 (78181) - https://sketchapp.com -->
    <title>Artboard Copy 2</title>
    <desc>Created with Sketch.</desc>
    <g id="Artboard-Copy-2" stroke="none" stroke-width="1" fill="none" fill-rule="evenodd">
        <path d="M375.651557,208.967726 C383.950487,206.670502 390.649623,212.263742 389.949713,221.153 C389.949713,223.350345 389.449777,224.948414 388.849855,226.646362 C388.849855,227.245637 388.249932,227.745034 388.249932,228.34431 C358.353787,305.35125 283.063497,360.085106 194.974856,360.085106 C107.486139,360.085106 32.1958481,305.251371 1.6997808,228.34431 C1.6997808,227.245637 1.09985816,226.746241 1.09985816,226.146965 C0.599922635,223.949621 0,222.351552 0,220.653604 C0,212.363622 7.19907162,206.87026 15.4980014,209.067605 C29.8961447,212.962898 44.7942234,215.659639 59.7922893,218.456259 L59.7922893,169.715161 L59.7922893,139.251974 C59.7922893,137.554026 59.7922893,124.270079 59.7922893,122.072735 C63.1918509,70.6348952 106.386281,29.0851064 158.979498,29.0851064 L231.570137,29.0851064 C282.563561,29.0851064 324.658133,67.238999 330.157424,116.479494 C330.757346,119.775511 330.757346,135.256802 330.757346,139.152095 L330.757346,169.615281 L330.757346,218.35638 C345.755412,215.559759 360.653491,212.263742 375.651557,208.967726 Z M119.784553,282.47889 L273.164773,281.879615 L273.164773,237.633085 L210.572845,237.633085 L242.668706,206.071226 C262.666127,187.293917 270.965057,168.516609 270.965057,145.244732 C270.965057,102.596271 240.46899,72.7323605 197.27456,72.7323605 C154.08013,72.7323605 124.183986,104.294219 123.584063,150.238697 L177.877061,150.238697 C177.377126,146.343405 176.777203,144.14606 176.777203,141.948715 C176.777203,127.566096 185.076133,117.578166 197.27456,117.578166 C209.472987,117.578166 219.471697,129.164165 219.471697,143.546784 C219.471697,154.633386 215.672187,166.818661 207.873193,178.40466 C199.074328,192.287882 181.876546,214.361208 168.578261,229.343103 L119.784553,282.47889 Z" id="Combined-Shape" fill="#000000" fill-rule="nonzero"></path>
    </g>
</svg>