<?xml version="1.0" encoding="UTF-8"?>
<svg width="470px" height="470px" viewBox="0 0 470 470" version="1.1" xmlns="http://www.w3.org/2000/svg" xmlns:xlink="http://www.w3.org/1999/xlink">
    <!-- Generator: Sketch 55.2 (78181) - https://sketchapp.com -->
    <title>Artboard Copy</title>
    <desc>Created with Sketch.</desc>
    <g id="Artboard-Copy" stroke="none" stroke-width="1" fill="none" fill-rule="evenodd">
        <path d="M415.651557,248.882619 C423.950487,246.585395 430.649623,252.178636 429.949713,261.067894 C429.949713,263.265238 429.449777,264.863307 428.849855,266.561255 C428.849855,267.160531 428.249932,267.659928 428.249932,268.259203 C398.353787,345.266144 323.063497,400 234.974856,400 C147.486139,400 72.1958481,345.166264 41.6997808,268.259203 C41.6997808,267.160531 41.0998582,266.661135 41.0998582,266.061859 C40.5999226,263.864514 40,262.266445 40,260.568497 C40,252.278515 47.1990716,246.785154 55.4980014,248.982498 C69.8961447,252.877791 84.7942234,255.574532 99.7922893,258.371153 L99.7922893,209.630054 L99.7922893,179.166868 C99.7922893,177.46892 99.7922893,164.184973 99.7922893,161.987628 C103.191851,110.549789 146.386281,69 198.979498,69 L271.570137,69 C322.563561,69 364.658133,107.153893 370.157424,156.394387 C370.757346,159.690404 370.757346,175.171696 370.757346,179.066989 L370.757346,209.530175 L370.757346,258.271273 C385.755412,255.474653 400.653491,252.178636 415.651557,248.882619 Z" id="Combined-Shape-path" fill="#F15A29" fill-rule="nonzero"></path>
        <path d="M159.784553,322.393784 L313.164773,321.794508 L313.164773,277.547978 L250.572845,277.547978 L282.668706,245.986119 C302.666127,227.208811 310.965057,208.431503 310.965057,185.159626 C310.965057,142.511165 280.46899,112.647254 237.27456,112.647254 C194.08013,112.647254 164.183986,144.209113 163.584063,190.153591 L217.877061,190.153591 C217.377126,186.258298 216.777203,184.060954 216.777203,181.863609 C216.777203,167.48099 225.076133,157.49306 237.27456,157.49306 C249.472987,157.49306 259.471697,169.079059 259.471697,183.461678 C259.471697,194.54828 255.672187,206.733555 247.873193,218.319553 C239.074328,232.202776 221.876546,254.276101 208.578261,269.257996 L159.784553,322.393784 Z" id="Combined-Shape-path" fill="#FFFFFF" fill-rule="nonzero"></path>
    </g>
</svg>