<?xml version="1.0" encoding="utf-8"?>
<!-- Generator: Adobe Illustrator 21.0.2, SVG Export Plug-In . SVG Version: 6.00 Build 0)  -->
<svg version="1.1" id="Layer_1" xmlns="http://www.w3.org/2000/svg" xmlns:xlink="http://www.w3.org/1999/xlink" x="0px" y="0px"
	 viewBox="0 0 180.9 65" style="enable-background:new 0 0 180.9 65;" xml:space="preserve">
<style type="text/css">
	.st0{fill:#FFFFFF;}
</style>
<g>
	<path class="st0" d="M71.5,34.7c-2.7,0.6-5.4,1.2-8.1,1.7v-8.8v-5.5c0-0.7,0-3.5-0.1-4.1c-1-8.9-8.6-15.8-17.8-15.8H32.4
		c-9.5,0-17.3,7.5-17.9,16.8c0,0.4,0,2.8,0,3.1v5.5v8.8c-2.7-0.5-5.4-1-8-1.7c-1.5-0.4-2.8,0.6-2.8,2.1c0,0.3,0.1,0.6,0.2,1
		C3.9,37.9,4,38,4,38.2C9.5,52.1,23.1,62,38.9,62c15.9,0,29.5-9.9,34.9-23.8c0-0.1,0.1-0.2,0.1-0.3c0.1-0.3,0.2-0.6,0.2-1
		C74.2,35.3,73,34.3,71.5,34.7z M53,47.9L25.3,48l8.8-9.6c2.4-2.7,5.5-6.7,7.1-9.2c1.4-2.1,2.1-4.3,2.1-6.3c0-2.6-1.8-4.7-4-4.7
		s-3.7,1.8-3.7,4.4c0,0.4,0.1,0.8,0.2,1.5H26c0.1-8.3,5.5-14,13.3-14s13.3,5.4,13.3,13.1c0,4.2-1.5,7.6-5.1,11l-5.8,5.7H53V47.9z"/>
	<path class="st0" d="M94.6,48V35.6c0-2.7-0.1-2.9-0.5-3.9c-0.5-1.1-1.8-1.9-3.3-1.9c-2.8,0-4.3,1.8-4.3,5.1v13.2h-8.3V7.5h8.3v19.1
		c0.4-0.5,0.8-0.9,1.1-1.2c1.5-1.6,3.7-2.4,6.4-2.4c2.8,0,5.1,0.9,6.7,2.7c1.7,1.8,2.2,3.4,2.2,6.9v15.7h-8.3L94.6,48L94.6,48z"/>
	<path class="st0" d="M125.6,48v-2.7c-0.3,0.5-0.6,0.8-0.8,1c-1.5,1.6-3.9,2.5-6.4,2.5c-6.7,0-11.8-5.7-11.8-13.2
		c0-7.3,5.1-13,11.7-13c1.3,0,2.4,0.3,3.6,0.6c1.6,0.6,2.3,1,3.7,2.6v-2.4h8.3V48H125.6z M120.6,30.1c-3,0-5.4,2.5-5.4,5.7
		c0,3.1,2.4,5.6,5.4,5.6c2.9,0,5.3-2.5,5.3-5.6C125.9,32.6,123.5,30.1,120.6,30.1z"/>
	<path class="st0" d="M149.1,30.6V48h-8.3V30.6H137v-7.2h3.8V16h8.3v7.4h5.9v7.2C155,30.6,149.1,30.6,149.1,30.6z"/>
	<path class="st0" d="M165.9,49c-3.2,0-6.3-0.9-9.4-2.8l3-6.1c2.2,1.5,4.7,2.4,6.6,2.4c1.5,0,2.6-0.8,2.6-1.8c0-0.4-0.2-0.9-0.4-1.1
		c-0.4-0.4-0.9-0.6-3.2-1.1c-1.1-0.3-3.4-1.1-4.5-2.1c-1.5-1.2-2.3-2.8-2.3-4.8c0-5.4,4-8.9,10.4-8.9c2.6,0,5.2,0.5,7.6,1.6
		l-2.8,5.7c-1.6-0.8-3.1-1.2-4.5-1.2c-1.5,0-2.6,0.8-2.6,1.8c0,0.4,0.2,0.8,0.5,1c0.7,0.5,2.6,1,3.6,1.2c1.4,0.4,2.9,0.9,4,1.8
		c1.4,1.1,2.4,2.9,2.4,5.3C177,45.3,172.7,49,165.9,49z"/>
</g>
</svg>
