<?xml version="1.0" encoding="UTF-8"?>
<svg width="1284px" height="813px" viewBox="0 0 1284 813" version="1.1" xmlns="http://www.w3.org/2000/svg" xmlns:xlink="http://www.w3.org/1999/xlink">
    <polygon id="Shape" fill="#FFFFFF" points="0 243.255979 774.713125 377.500161 687.582539 0 0 0"></polygon>
    <path d="M686.991155,69.4876276 C749.086482,345.959678 550.874256,93.8822202 363.7012,35.9758639 C220.290564,-8.37794091 122.712193,101.028111 75.4014682,149.817296 C51.1054396,174.852555 21.1419803,199.345712 0,215.707338 L0,413.525307 L864.899194,454.38009 L859.87243,0 L648.994729,0 C665.553483,15.0310116 679.648136,36.715094 686.991155,69.4876276 Z" id="Shape" fill="#FAFAFA"></path>
    <path d="M0,635.392895 L1131.02202,727.895219 L1199.03119,0 L774.121741,0 C768.45431,91.0238639 832.619481,255.034378 797.481411,333.146356 C750.367814,438.117028 524.853357,244.438747 483.456473,213.391083 C257.350632,43.8117028 77.1756204,250.056895 4.73107252,284.357171 C3.15404834,285.096401 1.57702417,285.835631 0,286.525579 L0,635.392895 Z" id="Shape" fill="#F6F6F6"></path>
    <path d="M1283.79624,0 L995.545791,0 C911.273561,115.073483 875.248416,478.97181 771.756204,494.298514 C632.978077,514.84911 529.288738,244.438747 282.385891,247.395667 C154.499087,248.923409 25.2816688,346.452498 0,366.510274 L0,812.660269 L1283.79624,812.660269 L1283.79624,0 Z" id="Shape" fill="#F1F1F1"></path>
    <path d="M1283.79624,157.012469 C1125.65028,133.751363 1029.94463,280.217483 932.908362,411.504745 C832.373071,547.52308 739.772183,712.322106 566.250242,500.212355 C353.351979,240.003366 189.242901,234.089526 1.47846016,408.547825 L2.7105103,812.660269 L1283.79624,812.660269 L1283.79624,157.012469 Z" id="Shape" fill="#EDEDED"></path>
    <path d="M1283.79624,425.944372 C1115.30106,376.465239 939.807843,687.976795 762.885443,687.976795 C601.684004,687.976795 479.021092,426.289347 297.170492,401.155524 C166.425332,383.069028 53.2738478,435.307954 0,466.109207 L0,812.660269 L1283.79624,812.660269 L1283.79624,425.944372 Z" id="Shape" fill="#E8E8E8"></path>
    <path d="M1283.79624,617.503527 C1060.54876,565.313884 978.297089,703.057089 801.325407,736.76598 C615.039427,772.249024 588.427144,653.972211 375.528881,605.183026 C195.304587,563.884706 42.5796526,684.724183 0,722.720609 L0,812.660269 L1283.79624,812.660269 L1283.79624,617.503527 Z" id="Shape" fill="#E1E1E1"></path>
</svg>
