<?xml version="1.0" encoding="UTF-8"?>
<svg width="1284px" height="813px" viewBox="0 0 1284 813" version="1.1" xmlns="http://www.w3.org/2000/svg" xmlns:xlink="http://www.w3.org/1999/xlink">
    <rect x="-2" y="-2" width="1288" height="817" fill="#fa5e4e" />
    <polygon fill="#F9A24B" points="0 243.50534 774.147465 377.887136 687.080499 0 0 0"></polygon>
    <path d="M686.972395,69.5588592 C749.066026,346.31432 550.859213,93.9784587 363.691268,36.0127427 C220.284548,-8.38652913 122.708842,101.131675 75.3994092,149.970874 C51.104044,175.031796 21.141403,199.550061 0,215.928459 L0,413.949211 L864.875576,454.845874 L859.848949,0 L648.977006,0 C665.535308,15.0464199 679.629577,36.7527306 686.972395,69.5588592 Z" fill="#FC9849"></path>
    <path d="M0,635.613603 L1130.24059,728.148058 L1198.20276,0 L773.58689,0 C767.923375,91.0554816 832.044213,255.122966 796.930421,333.262077 C749.849375,438.26921 524.490729,244.523654 483.122447,213.465206 C257.172825,43.826921 77.1222988,250.143754 4.72780376,284.455944 C3.15186917,285.195431 1.57593459,285.934918 0,286.625106 L0,635.613603 Z" fill="#FF9249"></path>
    <path d="M1284,0 L995.7038,0 C911.418196,115.121589 875.387332,479.172044 771.878695,494.505155 C633.078541,515.064342 529.372745,244.540934 282.43071,247.49909 C154.523608,249.027471 25.2856814,346.597332 0,366.663493 L0,813 L1284,813 L1284,0 Z" fill="#FC824C"></path>
    <path d="M1284,156.375184 C1125.88983,133.079415 1030.20583,279.763792 933.191512,411.246693 C832.678967,547.467716 740.099031,712.512318 566.61635,500.08649 C353.766256,239.48975 189.694308,233.567097 0,408.285366 L0,813 L1284,813 L1284,156.375184 Z" fill="#FA734C"></path>
    <path d="M1284,426.133572 C1115.47808,376.635178 939.957006,688.267992 763.006526,688.267992 C601.779501,688.267992 479.097121,426.47868 297.217658,401.335074 C166.451747,383.241537 53.2823033,435.500798 0,466.314041 L0,813 L1284,813 L1284,426.133572 Z" fill="#FA6A4D"></path>
    <path d="M1284,617.741595 C1060.71708,565.524764 978.452361,703.339724 801.452591,737.066176 C615.137044,772.567704 588.520537,654.229277 375.588484,605.414675 C195.335585,564.094841 42.5864107,684.997268 0,723.013487 L0,816 L1284,816 L1284,617.741595 Z" fill="#FA5E4E"></path>
</svg>
