<?xml version="1.0" encoding="UTF-8"?>
<svg width="1270px" height="738px" viewBox="0 0 1270 738" version="1.1" xmlns="http://www.w3.org/2000/svg" xmlns:xlink="http://www.w3.org/1999/xlink">
    <!-- Generator: Sketch 52.5 (67469) - http://www.bohemiancoding.com/sketch -->
    <title>Artboard</title>
    <desc>Created with Sketch.</desc>
    <g id="Artboard" stroke="none" stroke-width="1" fill="none" fill-rule="evenodd">
        <polygon id="Path" fill="#F9A24B" points="-7 234.578068 767 369 679.949619 -9 -7 -9"></polygon>
        <path d="M680.071225,60.5824294 C742.173789,337.43167 543.938462,85.0103036 356.74359,27.0249457 C213.316239,-17.3893709 115.726495,92.1659438 68.4102564,141.021692 C44.111396,166.091106 14.1444445,190.617679 -7,207.001627 L-7,405.089479 L858,446 L852.97265,-9 L642.07037,-9 C658.631054,6.05151843 672.727351,27.7651844 680.071225,60.5824294 Z" id="Path" fill="#FE8D46"></path>
        <path d="M1134.13076,600.605382 C1039.20289,613.861675 970.734364,664.640455 886.310913,700 L553.949459,672.775361 C506.884184,645.704471 452.036436,615.848531 368.524927,596.693893 C268.229103,573.691232 176.449877,600.946438 107.431486,636.199849 L-7,626.826451 L-7,277.721088 C-5.42433209,277.030669 -3.84866419,276.290935 -2.27299628,275.5512 C70.1092482,241.22752 250.129306,34.8415974 476.040693,204.536689 C517.401975,235.605538 742.722485,429.415974 789.795564,324.373677 C824.903414,246.208399 760.793427,82.0859734 766.455984,-9 L1191,-9 L1134.13076,600.605382 Z" id="Combined-Shape" fill="#FC7C43"></path>
        <path d="M1277,609.081899 C1053.71708,556.842768 971.452361,694.716584 794.452591,728.457439 C608.137044,763.974129 581.520537,645.585164 368.588484,596.749715 C188.335585,555.412235 35.5864107,676.366295 -7,714.398749 L-7,357.820082 C18.2856814,337.745351 147.523608,240.133822 275.43071,238.604788 C522.372745,235.645369 626.078541,506.284307 764.878695,485.71634 C868.387332,470.376681 904.418196,106.170753 988.7038,-9 L1277,-9 L1277,609.081899 Z" id="Combined-Shape" fill="#FA6E45"></path>
        <path d="M1277,609.085483 C1053.71708,556.847838 971.452361,694.71773 794.452591,728.457626 C608.137044,763.973304 581.520537,645.587708 368.588484,596.753649 C188.335585,555.417345 35.5864107,676.367963 -7,714.399335 L-7,399.469279 C182.694308,224.681369 346.766256,230.606383 559.61635,491.306994 C733.099031,703.817494 825.678967,538.707106 926.191512,402.431787 C1023.20583,270.896477 1118.88983,124.153633 1277,147.458688 L1277,609.085483 Z" id="Combined-Shape" fill="#FA5A45"></path>
        <path d="M1277,609.158293 C1053.71708,556.950856 971.452361,694.741024 794.452591,728.461409 C608.137044,763.95655 581.520537,645.639412 368.588484,596.833591 C188.335585,555.52119 35.5864107,676.401868 -7,714.411248 L-7,457.681538 C46.2823033,426.873838 159.451747,374.623978 290.217658,392.71426 C472.097121,417.853343 594.779501,679.595561 756.006526,679.595561 C932.957006,679.595561 1108.47808,368.018807 1277,417.508297 L1277,609.158293 Z" id="Combined-Shape" fill="#F84248"></path>
    </g>
</svg>