<?xml version="1.0" standalone="no"?>
<!DOCTYPE svg PUBLIC "-//W3C//DTD SVG 20010904//EN"
 "http://www.w3.org/TR/2001/REC-SVG-20010904/DTD/svg10.dtd">
<svg version="1.0" xmlns="http://www.w3.org/2000/svg"
 width="700.000000pt" height="700.000000pt" viewBox="0 0 700.000000 700.000000"
 preserveAspectRatio="xMidYMid meet">
<metadata>
Created by potrace 1.11, written by Peter Selinger 2001-2013
</metadata>
<g transform="translate(0.000000,700.000000) scale(0.100000,-0.100000)"
fill="#000000" stroke="none">
<path d="M2728 6475 c-2 -2 -30 -5 -63 -8 -304 -27 -661 -173 -910 -372 -368
-294 -590 -681 -671 -1165 -3 -19 -7 -441 -9 -938 -1 -496 -4 -905 -7 -907 -9
-9 -427 74 -674 135 -96 23 -169 35 -199 34 -102 -7 -185 -89 -190 -188 -6
-106 75 -316 227 -590 53 -95 177 -297 188 -306 3 -3 22 -27 40 -55 143 -210
387 -477 630 -690 76 -66 322 -245 440 -320 221 -140 511 -278 770 -368 81
-28 269 -83 310 -91 14 -3 66 -15 115 -26 91 -21 169 -34 260 -45 28 -4 57 -8
65 -10 8 -2 51 -7 95 -10 44 -4 100 -8 125 -11 59 -5 401 -5 465 1 28 2 84 7
125 10 41 4 91 9 110 11 41 6 216 34 245 40 11 2 34 7 50 10 128 23 437 115
590 176 236 94 482 220 675 346 57 37 250 175 285 203 255 209 459 416 634
644 17 22 35 45 41 52 18 22 177 257 194 288 9 17 33 57 52 90 51 87 175 344
220 455 74 185 49 317 -71 371 -47 21 -93 20 -205 -6 -83 -18 -76 -17 -214
-45 -55 -12 -102 -23 -105 -24 -3 -2 -22 -7 -41 -10 -19 -3 -80 -15 -135 -26
-55 -11 -113 -23 -130 -26 -16 -3 -48 -9 -70 -14 -22 -5 -41 -7 -44 -5 -2 3
-5 411 -6 907 -2 497 -5 912 -8 923 -2 11 -8 40 -12 65 -13 86 -15 95 -24 128
-5 18 -10 33 -9 35 4 24 -80 252 -130 352 -209 420 -584 743 -1032 892 -85 28
-222 62 -278 68 -20 3 -71 9 -112 13 -63 8 -1594 14 -1602 7z m987 -790 c66
-7 100 -13 160 -27 28 -6 51 -11 52 -10 2 1 42 -12 90 -29 250 -88 445 -228
596 -428 115 -153 207 -377 232 -566 4 -27 9 -61 11 -75 6 -37 5 -290 -1 -325
-3 -16 -8 -46 -11 -65 -3 -19 -8 -51 -10 -70 -7 -54 -69 -230 -108 -308 -99
-196 -171 -282 -573 -679 -200 -196 -363 -360 -363 -363 0 -3 250 -5 555 -5
487 0 555 -2 556 -15 3 -64 1 -772 -2 -775 -3 -2 -623 -7 -1378 -10 l-1373 -5
54 57 c30 32 77 83 104 113 27 30 58 64 69 75 11 12 65 70 120 130 55 61 123
135 151 165 28 30 73 79 100 109 27 30 79 86 115 125 36 39 83 91 105 115 21
24 52 58 68 75 43 46 254 300 316 381 30 39 57 72 60 75 14 13 206 277 272
375 130 191 188 313 229 477 18 69 27 162 24 238 -6 187 -97 342 -243 412
-148 71 -323 34 -421 -91 -82 -104 -112 -247 -87 -411 l8 -45 -484 0 -483 0
-1 70 c-1 194 74 484 172 657 19 33 34 62 34 64 0 11 118 163 164 212 269 285
690 427 1121 377z"/>
</g>
</svg>
