<svg width="28" height="28" xmlns="http://www.w3.org/2000/svg">
  <g fill="none" fill-rule="evenodd">
    <rect fill="#FFF" width="28" height="28" rx="14"/>
    <path d="M22.64 14.205c0-.639-.057-1.252-.164-1.841H14v3.481h4.844a4.14 4.14 0 0 1-1.796 2.716v2.259h2.908c1.702-1.567 2.684-3.875 2.684-6.615z" fill="#4285F4"/>
    <path d="M14 23c2.43 0 4.467-.806 5.956-2.18l-2.908-2.259c-.806.54-1.837.86-3.048.86-2.344 0-4.328-1.584-5.036-3.711H5.957v2.332A8.997 8.997 0 0 0 14 23z" fill="#34A853"/>
    <path d="M8.964 15.71A5.41 5.41 0 0 1 8.682 14c0-.593.102-1.17.282-1.71V9.958H5.957A8.996 8.996 0 0 0 5 14c0 1.452.348 2.827.957 4.042l3.007-2.332z" fill="#FBBC05"/>
    <path d="M14 8.58c1.321 0 2.508.454 3.44 1.345l2.582-2.58C18.463 5.891 16.426 5 14 5a8.997 8.997 0 0 0-8.043 4.958l3.007 2.332c.708-2.127 2.692-3.71 5.036-3.71z" fill="#EA4335"/>
    <path d="M5 5h18v18H5z"/>
  </g>
</svg>
