<?xml version="1.0" encoding="UTF-8"?>
<svg width="22px" height="22px" viewBox="0 0 22 22" version="1.1" xmlns="http://www.w3.org/2000/svg" xmlns:xlink="http://www.w3.org/1999/xlink">
    <!-- Generator: Sketch 50.2 (55047) - http://www.bohemiancoding.com/sketch -->
    <title>linkedin</title>
    <desc>Created with Sketch.</desc>
    <defs>
        <path d="M45.4285714,9 L26.5665179,9 C25.7022321,9 25,9.71205357 25,10.5861607 L25,29.4138393 C25,30.2879464 25.7022321,31 26.5665179,31 L45.4285714,31 C46.2928571,31 47,30.2879464 47,29.4138393 L47,10.5861607 C47,9.71205357 46.2928571,9 45.4285714,9 Z M31.6491071,27.8571429 L28.3883929,27.8571429 L28.3883929,17.3580357 L31.6540179,17.3580357 L31.6540179,27.8571429 L31.6491071,27.8571429 Z M30.01875,15.9241071 C28.9727679,15.9241071 28.128125,15.0745536 28.128125,14.0334821 C28.128125,12.9924107 28.9727679,12.1428571 30.01875,12.1428571 C31.0598214,12.1428571 31.909375,12.9924107 31.909375,14.0334821 C31.909375,15.0794643 31.0647321,15.9241071 30.01875,15.9241071 Z M43.871875,27.8571429 L40.6111607,27.8571429 L40.6111607,22.75 C40.6111607,21.5321429 40.5866071,19.965625 38.9169643,19.965625 C37.2178571,19.965625 36.9575893,21.2915179 36.9575893,22.6616071 L36.9575893,27.8571429 L33.696875,27.8571429 L33.696875,17.3580357 L36.825,17.3580357 L36.825,18.7919643 L36.8691964,18.7919643 C37.30625,17.9669643 38.371875,17.0977679 39.9580357,17.0977679 C43.2580357,17.0977679 43.871875,19.2732143 43.871875,22.1017857 L43.871875,27.8571429 Z" id="path-1"></path>
    </defs>
    <g id="Symbols" stroke="none" stroke-width="1" fill="none" fill-rule="evenodd">
        <g id="SignUp-Linkedin" transform="translate(-25.000000, -9.000000)">
            <mask id="mask-2" fill="white">
                <use xlink:href="#path-1"></use>
            </mask>
            <use id="linkedin" fill="#FFFFFF" fill-rule="nonzero" xlink:href="#path-1"></use>
        </g>
    </g>
</svg>